<svg xmlns="http://www.w3.org/2000/svg" xmlns:xlink="http://www.w3.org/1999/xlink" width="130" zoomAndPan="magnify" viewBox="0 0 97.5 30.000001" height="40" preserveAspectRatio="xMidYMid meet" version="1.0"><defs><g/><clipPath id="a40f9b5a8e"><path d="M 1.332031 6.308594 L 13 6.308594 L 13 17.980469 L 1.332031 17.980469 Z M 1.332031 6.308594 " clip-rule="nonzero"/></clipPath></defs><g clip-path="url(#a40f9b5a8e)"><path fill="#c0d725" d="M 12.964844 9.101562 L 12.964844 17.9375 L 4.125 17.9375 C 2.605469 17.941406 1.371094 16.707031 1.371094 15.183594 L 1.371094 6.347656 L 10.207031 6.347656 C 11.730469 6.347656 12.964844 7.582031 12.964844 9.101562 Z M 12.964844 9.101562 L 12.964844 17.9375 L 4.125 17.9375 C 2.605469 17.941406 1.371094 16.707031 1.371094 15.183594 L 1.371094 6.347656 L 10.207031 6.347656 C 11.730469 6.347656 12.964844 7.582031 12.964844 9.101562 Z M 12.964844 9.101562 " fill-opacity="1" fill-rule="nonzero"/><path fill="#0f4c81" d="M 12.964844 17.980469 L 4.125 17.980469 C 2.585938 17.980469 1.332031 16.726562 1.332031 15.183594 L 1.332031 6.347656 C 1.332031 6.324219 1.347656 6.308594 1.371094 6.308594 L 10.207031 6.308594 C 11.75 6.308594 13 7.5625 13 9.101562 L 13 17.9375 C 13.003906 17.960938 12.984375 17.980469 12.964844 17.980469 Z M 1.410156 6.386719 L 1.410156 15.183594 C 1.410156 16.683594 2.628906 17.898438 4.125 17.898438 L 12.921875 17.898438 L 12.921875 9.101562 C 12.921875 7.601562 11.699219 6.386719 10.207031 6.386719 Z M 1.410156 6.386719 " fill-opacity="1" fill-rule="nonzero"/></g><g fill="#0f4c81" fill-opacity="1"><g transform="translate(13.641831, 17.698337)"><g><path d="M 9.296875 -8.09375 L 4.96875 0.234375 L 4.875 0.234375 L 0.375 -8.09375 L 2.546875 -8.09375 L 4.984375 -2.9375 L 7.25 -8.09375 Z M 9.296875 -8.09375 "/></g></g></g><g fill="#0f4c81" fill-opacity="1"><g transform="translate(23.301087, 17.698337)"><g><path d="M 0.875 -4.125 C 0.875 -4.925781 1.066406 -5.65625 1.453125 -6.3125 C 1.835938 -6.96875 2.375 -7.484375 3.0625 -7.859375 C 3.75 -8.242188 4.519531 -8.4375 5.375 -8.4375 C 6.238281 -8.4375 7.003906 -8.242188 7.671875 -7.859375 C 8.347656 -7.484375 8.867188 -6.96875 9.234375 -6.3125 C 9.609375 -5.664062 9.796875 -4.9375 9.796875 -4.125 C 9.796875 -3.320312 9.609375 -2.585938 9.234375 -1.921875 C 8.867188 -1.265625 8.347656 -0.742188 7.671875 -0.359375 C 6.992188 0.015625 6.21875 0.203125 5.34375 0.203125 C 4.488281 0.203125 3.722656 0.0234375 3.046875 -0.328125 C 2.367188 -0.691406 1.835938 -1.203125 1.453125 -1.859375 C 1.066406 -2.515625 0.875 -3.269531 0.875 -4.125 Z M 2.71875 -4.109375 C 2.71875 -3.597656 2.832031 -3.125 3.0625 -2.6875 C 3.289062 -2.257812 3.601562 -1.921875 4 -1.671875 C 4.394531 -1.429688 4.835938 -1.3125 5.328125 -1.3125 C 6.078125 -1.3125 6.695312 -1.578125 7.1875 -2.109375 C 7.6875 -2.648438 7.9375 -3.316406 7.9375 -4.109375 C 7.9375 -4.898438 7.6875 -5.566406 7.1875 -6.109375 C 6.695312 -6.648438 6.078125 -6.921875 5.328125 -6.921875 C 4.828125 -6.921875 4.378906 -6.789062 3.984375 -6.53125 C 3.597656 -6.28125 3.289062 -5.941406 3.0625 -5.515625 C 2.832031 -5.085938 2.71875 -4.617188 2.71875 -4.109375 Z M 2.71875 -4.109375 "/></g></g></g><g fill="#0f4c81" fill-opacity="1"><g transform="translate(33.957554, 17.698337)"><g><path d="M 3.40625 -15.15625 L 3.40625 0 L 1.578125 0 L 1.578125 -15.15625 Z M 3.40625 -15.15625 "/></g></g></g><g fill="#0f4c81" fill-opacity="1"><g transform="translate(38.943608, 17.698337)"><g><path d="M 9.109375 -8.09375 L 9.109375 0 L 7.46875 0 L 7.359375 -1.546875 C 7.078125 -0.992188 6.648438 -0.546875 6.078125 -0.203125 C 5.503906 0.140625 4.867188 0.3125 4.171875 0.3125 C 3.421875 0.3125 2.804688 0.0859375 2.328125 -0.359375 C 1.859375 -0.804688 1.609375 -1.390625 1.578125 -2.109375 L 1.578125 -8.09375 L 3.40625 -8.09375 L 3.40625 -2.765625 C 3.425781 -2.304688 3.554688 -1.941406 3.796875 -1.671875 C 4.046875 -1.398438 4.410156 -1.257812 4.890625 -1.25 C 5.335938 -1.25 5.742188 -1.378906 6.109375 -1.640625 C 6.472656 -1.910156 6.757812 -2.28125 6.96875 -2.75 C 7.1875 -3.226562 7.296875 -3.753906 7.296875 -4.328125 L 7.296875 -8.09375 Z M 9.109375 -8.09375 "/></g></g></g><g fill="#0f4c81" fill-opacity="1"><g transform="translate(49.63918, 17.698337)"><g><path d="M 8.15625 -0.765625 C 7.789062 -0.460938 7.359375 -0.222656 6.859375 -0.046875 C 6.359375 0.117188 5.847656 0.203125 5.328125 0.203125 C 4.453125 0.203125 3.675781 0.0234375 3 -0.328125 C 2.332031 -0.679688 1.8125 -1.179688 1.4375 -1.828125 C 1.0625 -2.472656 0.875 -3.21875 0.875 -4.0625 C 0.875 -4.90625 1.066406 -5.644531 1.453125 -6.28125 C 1.847656 -6.925781 2.375 -7.425781 3.03125 -7.78125 C 3.6875 -8.132812 4.390625 -8.3125 5.140625 -8.3125 C 6.378906 -8.3125 7.40625 -7.972656 8.21875 -7.296875 L 7.296875 -6.109375 C 7.035156 -6.296875 6.734375 -6.457031 6.390625 -6.59375 C 6.054688 -6.738281 5.691406 -6.8125 5.296875 -6.8125 C 4.816406 -6.8125 4.378906 -6.6875 3.984375 -6.4375 C 3.585938 -6.195312 3.273438 -5.867188 3.046875 -5.453125 C 2.816406 -5.035156 2.703125 -4.570312 2.703125 -4.0625 C 2.703125 -3.5625 2.820312 -3.097656 3.0625 -2.671875 C 3.300781 -2.253906 3.628906 -1.921875 4.046875 -1.671875 C 4.460938 -1.429688 4.941406 -1.3125 5.484375 -1.3125 C 6.140625 -1.3125 6.71875 -1.503906 7.21875 -1.890625 Z M 8.15625 -0.765625 "/></g></g></g><g fill="#0f4c81" fill-opacity="1"><g transform="translate(58.555419, 17.698337)"><g><path d="M 3.40625 -8.09375 L 3.40625 0 L 1.578125 0 L 1.578125 -8.09375 Z M 1.015625 -11.171875 C 1.015625 -11.453125 1.125 -11.691406 1.34375 -11.890625 C 1.570312 -12.085938 1.828125 -12.1875 2.109375 -12.1875 C 2.398438 -12.1875 2.648438 -12.085938 2.859375 -11.890625 C 3.078125 -11.691406 3.1875 -11.453125 3.1875 -11.171875 C 3.1875 -10.878906 3.078125 -10.632812 2.859375 -10.4375 C 2.648438 -10.25 2.398438 -10.15625 2.109375 -10.15625 C 1.828125 -10.15625 1.570312 -10.25 1.34375 -10.4375 C 1.125 -10.632812 1.015625 -10.878906 1.015625 -11.171875 Z M 1.015625 -11.171875 "/></g></g></g><g fill="#0f4c81" fill-opacity="1"><g transform="translate(63.541472, 17.698337)"><g><path d="M 0.875 -4.125 C 0.875 -4.925781 1.066406 -5.65625 1.453125 -6.3125 C 1.835938 -6.96875 2.375 -7.484375 3.0625 -7.859375 C 3.75 -8.242188 4.519531 -8.4375 5.375 -8.4375 C 6.238281 -8.4375 7.003906 -8.242188 7.671875 -7.859375 C 8.347656 -7.484375 8.867188 -6.96875 9.234375 -6.3125 C 9.609375 -5.664062 9.796875 -4.9375 9.796875 -4.125 C 9.796875 -3.320312 9.609375 -2.585938 9.234375 -1.921875 C 8.867188 -1.265625 8.347656 -0.742188 7.671875 -0.359375 C 6.992188 0.015625 6.21875 0.203125 5.34375 0.203125 C 4.488281 0.203125 3.722656 0.0234375 3.046875 -0.328125 C 2.367188 -0.691406 1.835938 -1.203125 1.453125 -1.859375 C 1.066406 -2.515625 0.875 -3.269531 0.875 -4.125 Z M 2.71875 -4.109375 C 2.71875 -3.597656 2.832031 -3.125 3.0625 -2.6875 C 3.289062 -2.257812 3.601562 -1.921875 4 -1.671875 C 4.394531 -1.429688 4.835938 -1.3125 5.328125 -1.3125 C 6.078125 -1.3125 6.695312 -1.578125 7.1875 -2.109375 C 7.6875 -2.648438 7.9375 -3.316406 7.9375 -4.109375 C 7.9375 -4.898438 7.6875 -5.566406 7.1875 -6.109375 C 6.695312 -6.648438 6.078125 -6.921875 5.328125 -6.921875 C 4.828125 -6.921875 4.378906 -6.789062 3.984375 -6.53125 C 3.597656 -6.28125 3.289062 -5.941406 3.0625 -5.515625 C 2.832031 -5.085938 2.71875 -4.617188 2.71875 -4.109375 Z M 2.71875 -4.109375 "/></g></g></g><g fill="#0f4c81" fill-opacity="1"><g transform="translate(74.197939, 17.698337)"><g><path d="M 6.609375 -8.40625 C 7.367188 -8.40625 7.992188 -8.179688 8.484375 -7.734375 C 8.984375 -7.285156 9.238281 -6.703125 9.25 -5.984375 L 9.25 0 L 7.421875 0 L 7.421875 -5.359375 C 7.390625 -5.816406 7.25 -6.175781 7 -6.4375 C 6.75 -6.695312 6.378906 -6.832031 5.890625 -6.84375 C 5.171875 -6.84375 4.578125 -6.554688 4.109375 -5.984375 C 3.640625 -5.410156 3.40625 -4.679688 3.40625 -3.796875 L 3.40625 0 L 1.578125 0 L 1.578125 -8.09375 L 3.234375 -8.09375 L 3.34375 -6.53125 C 3.632812 -7.125 4.066406 -7.582031 4.640625 -7.90625 C 5.210938 -8.238281 5.867188 -8.40625 6.609375 -8.40625 Z M 6.609375 -8.40625 "/></g></g></g><g fill="#0f4c81" fill-opacity="1"><g transform="translate(85.010827, 17.698337)"><g><path d="M 5.375 -1.375 C 6.050781 -1.375 6.710938 -1.609375 7.359375 -2.078125 L 8.203125 -0.71875 C 7.765625 -0.4375 7.296875 -0.210938 6.796875 -0.046875 C 6.296875 0.117188 5.8125 0.203125 5.34375 0.203125 C 4.4375 0.203125 3.644531 0.015625 2.96875 -0.359375 C 2.300781 -0.734375 1.785156 -1.242188 1.421875 -1.890625 C 1.054688 -2.546875 0.875 -3.285156 0.875 -4.109375 C 0.875 -4.898438 1.070312 -5.625 1.46875 -6.28125 C 1.875 -6.945312 2.421875 -7.472656 3.109375 -7.859375 C 3.796875 -8.242188 4.550781 -8.4375 5.375 -8.4375 C 6.4375 -8.4375 7.320312 -8.125 8.03125 -7.5 C 8.738281 -6.882812 9.222656 -6.019531 9.484375 -4.90625 L 3.078125 -2.65625 C 3.304688 -2.25 3.617188 -1.929688 4.015625 -1.703125 C 4.410156 -1.484375 4.863281 -1.375 5.375 -1.375 Z M 5.25 -6.984375 C 4.5 -6.984375 3.882812 -6.722656 3.40625 -6.203125 C 2.925781 -5.679688 2.6875 -5.015625 2.6875 -4.203125 C 2.6875 -4.003906 2.691406 -3.851562 2.703125 -3.75 L 7.421875 -5.5 C 7.222656 -5.9375 6.941406 -6.289062 6.578125 -6.5625 C 6.222656 -6.84375 5.78125 -6.984375 5.25 -6.984375 Z M 5.25 -6.984375 "/></g></g></g><g fill="#0f4c81" fill-opacity="1"><g transform="translate(1.970693, 17.849984)"><g><path d="M 5.4375 -1.375 C 6.113281 -1.375 6.773438 -1.613281 7.421875 -2.09375 L 8.28125 -0.734375 C 7.84375 -0.441406 7.367188 -0.210938 6.859375 -0.046875 C 6.359375 0.117188 5.867188 0.203125 5.390625 0.203125 C 4.484375 0.203125 3.691406 0.015625 3.015625 -0.359375 C 2.335938 -0.734375 1.8125 -1.25 1.4375 -1.90625 C 1.070312 -2.570312 0.890625 -3.316406 0.890625 -4.140625 C 0.890625 -4.953125 1.085938 -5.6875 1.484375 -6.34375 C 1.890625 -7.007812 2.441406 -7.535156 3.140625 -7.921875 C 3.835938 -8.316406 4.601562 -8.515625 5.4375 -8.515625 C 6.5 -8.515625 7.390625 -8.203125 8.109375 -7.578125 C 8.828125 -6.953125 9.316406 -6.078125 9.578125 -4.953125 L 3.09375 -2.6875 C 3.332031 -2.28125 3.648438 -1.957031 4.046875 -1.71875 C 4.453125 -1.488281 4.914062 -1.375 5.4375 -1.375 Z M 5.296875 -7.046875 C 4.546875 -7.046875 3.925781 -6.78125 3.4375 -6.25 C 2.945312 -5.726562 2.703125 -5.0625 2.703125 -4.25 C 2.703125 -4.050781 2.707031 -3.898438 2.71875 -3.796875 L 7.484375 -5.546875 C 7.285156 -5.992188 7.003906 -6.351562 6.640625 -6.625 C 6.285156 -6.90625 5.835938 -7.046875 5.296875 -7.046875 Z M 5.296875 -7.046875 "/></g></g></g><g fill="#0f4c81" fill-opacity="1"><g transform="translate(14.416097, 26.431892)"><g><path d="M 3.140625 -4.03125 L 3.140625 -3.765625 L 0.921875 -3.765625 L 0.921875 -2.171875 L 2.90625 -2.171875 L 2.90625 -1.90625 L 0.921875 -1.90625 L 0.921875 -0.265625 L 3.21875 -0.265625 L 3.21875 0 L 0.640625 0 L 0.640625 -4.03125 Z M 3.140625 -4.03125 "/></g></g></g><g fill="#0f4c81" fill-opacity="1"><g transform="translate(18.046973, 26.431892)"><g><path d="M 0.640625 -4.03125 L 1.640625 -4.03125 C 2.128906 -4.03125 2.535156 -3.929688 2.859375 -3.734375 C 3.179688 -3.535156 3.414062 -3.28125 3.5625 -2.96875 C 3.71875 -2.65625 3.796875 -2.332031 3.796875 -2 C 3.796875 -1.601562 3.707031 -1.253906 3.53125 -0.953125 C 3.351562 -0.648438 3.113281 -0.414062 2.8125 -0.25 C 2.507812 -0.0820312 2.179688 0 1.828125 0 L 0.640625 0 Z M 1.75 -0.265625 C 2.082031 -0.265625 2.378906 -0.332031 2.640625 -0.46875 C 2.910156 -0.613281 3.125 -0.816406 3.28125 -1.078125 C 3.4375 -1.347656 3.515625 -1.660156 3.515625 -2.015625 C 3.515625 -2.328125 3.441406 -2.613281 3.296875 -2.875 C 3.160156 -3.144531 2.953125 -3.359375 2.671875 -3.515625 C 2.398438 -3.679688 2.066406 -3.765625 1.671875 -3.765625 L 0.921875 -3.765625 L 0.921875 -0.265625 Z M 1.75 -0.265625 "/></g></g></g><g fill="#0f4c81" fill-opacity="1"><g transform="translate(22.229013, 26.431892)"><g><path d="M 0.90625 -1.359375 C 0.90625 -1.128906 0.953125 -0.925781 1.046875 -0.75 C 1.140625 -0.582031 1.269531 -0.453125 1.4375 -0.359375 C 1.601562 -0.265625 1.789062 -0.21875 2 -0.21875 C 2.21875 -0.21875 2.410156 -0.265625 2.578125 -0.359375 C 2.753906 -0.453125 2.890625 -0.582031 2.984375 -0.75 C 3.078125 -0.925781 3.125 -1.128906 3.125 -1.359375 L 3.125 -4.03125 L 3.40625 -4.03125 L 3.40625 -1.34375 C 3.40625 -1.0625 3.34375 -0.816406 3.21875 -0.609375 C 3.09375 -0.398438 2.925781 -0.238281 2.71875 -0.125 C 2.507812 -0.0078125 2.269531 0.046875 2 0.046875 C 1.738281 0.046875 1.503906 -0.0078125 1.296875 -0.125 C 1.085938 -0.238281 0.921875 -0.398438 0.796875 -0.609375 C 0.679688 -0.816406 0.625 -1.0625 0.625 -1.34375 L 0.625 -4.03125 L 0.90625 -4.03125 Z M 0.90625 -1.359375 "/></g></g></g><g fill="#0f4c81" fill-opacity="1"><g transform="translate(26.246272, 26.431892)"><g><path d="M 3.546875 -0.265625 C 3.398438 -0.171875 3.234375 -0.09375 3.046875 -0.03125 C 2.859375 0.0195312 2.660156 0.046875 2.453125 0.046875 C 2.046875 0.046875 1.6875 -0.0390625 1.375 -0.21875 C 1.0625 -0.40625 0.816406 -0.65625 0.640625 -0.96875 C 0.472656 -1.28125 0.390625 -1.617188 0.390625 -1.984375 C 0.390625 -2.378906 0.476562 -2.734375 0.65625 -3.046875 C 0.832031 -3.367188 1.078125 -3.617188 1.390625 -3.796875 C 1.703125 -3.984375 2.046875 -4.078125 2.421875 -4.078125 C 2.816406 -4.078125 3.1875 -3.976562 3.53125 -3.78125 L 3.40625 -3.515625 C 3.082031 -3.710938 2.753906 -3.8125 2.421875 -3.8125 C 2.109375 -3.8125 1.816406 -3.726562 1.546875 -3.5625 C 1.285156 -3.40625 1.070312 -3.1875 0.90625 -2.90625 C 0.75 -2.632812 0.671875 -2.332031 0.671875 -2 C 0.671875 -1.675781 0.742188 -1.378906 0.890625 -1.109375 C 1.035156 -0.835938 1.238281 -0.617188 1.5 -0.453125 C 1.769531 -0.296875 2.078125 -0.21875 2.421875 -0.21875 C 2.773438 -0.21875 3.101562 -0.316406 3.40625 -0.515625 Z M 3.546875 -0.265625 "/></g></g></g><g fill="#0f4c81" fill-opacity="1"><g transform="translate(30.172618, 26.431892)"><g><path d="M 2.890625 -1.34375 L 1.109375 -1.34375 L 0.5625 0 L 0.296875 0 L 2 -4.21875 L 2.015625 -4.21875 L 3.71875 0 L 3.40625 0 Z M 2.78125 -1.59375 L 2 -3.578125 L 1.203125 -1.59375 Z M 2.78125 -1.59375 "/></g></g></g><g fill="#0f4c81" fill-opacity="1"><g transform="translate(34.184195, 26.431892)"><g><path d="M 2.40625 0.328125 C 2.59375 0.328125 2.738281 0.367188 2.84375 0.453125 C 2.957031 0.535156 3.015625 0.648438 3.015625 0.796875 C 3.015625 0.960938 2.945312 1.082031 2.8125 1.15625 C 2.6875 1.238281 2.523438 1.28125 2.328125 1.28125 C 2.210938 1.28125 2.109375 1.265625 2.015625 1.234375 C 1.921875 1.203125 1.847656 1.160156 1.796875 1.109375 L 1.890625 0.96875 C 1.984375 1.070312 2.117188 1.125 2.296875 1.125 C 2.441406 1.125 2.554688 1.09375 2.640625 1.03125 C 2.722656 0.976562 2.765625 0.90625 2.765625 0.8125 C 2.765625 0.71875 2.726562 0.640625 2.65625 0.578125 C 2.582031 0.515625 2.476562 0.484375 2.34375 0.484375 C 2.28125 0.484375 2.207031 0.488281 2.125 0.5 C 2.039062 0.519531 1.976562 0.539062 1.9375 0.5625 L 1.859375 0.421875 L 2.203125 0.03125 C 1.835938 0 1.519531 -0.109375 1.25 -0.296875 C 0.976562 -0.484375 0.765625 -0.722656 0.609375 -1.015625 C 0.460938 -1.316406 0.390625 -1.640625 0.390625 -1.984375 C 0.390625 -2.378906 0.476562 -2.734375 0.65625 -3.046875 C 0.832031 -3.367188 1.078125 -3.617188 1.390625 -3.796875 C 1.703125 -3.984375 2.046875 -4.078125 2.421875 -4.078125 C 2.816406 -4.078125 3.1875 -3.976562 3.53125 -3.78125 L 3.40625 -3.515625 C 3.082031 -3.710938 2.753906 -3.8125 2.421875 -3.8125 C 2.109375 -3.8125 1.816406 -3.726562 1.546875 -3.5625 C 1.285156 -3.40625 1.070312 -3.1875 0.90625 -2.90625 C 0.75 -2.632812 0.671875 -2.332031 0.671875 -2 C 0.671875 -1.675781 0.742188 -1.378906 0.890625 -1.109375 C 1.035156 -0.835938 1.238281 -0.617188 1.5 -0.453125 C 1.769531 -0.296875 2.078125 -0.21875 2.421875 -0.21875 C 2.773438 -0.21875 3.101562 -0.316406 3.40625 -0.515625 L 3.546875 -0.265625 C 3.191406 -0.0546875 2.820312 0.046875 2.4375 0.046875 L 2.1875 0.359375 C 2.25 0.335938 2.320312 0.328125 2.40625 0.328125 Z M 2.40625 0.328125 "/></g></g></g><g fill="#0f4c81" fill-opacity="1"><g transform="translate(38.110541, 26.431892)"><g><path d="M 2.890625 -1.34375 L 1.109375 -1.34375 L 0.5625 0 L 0.296875 0 L 2 -4.21875 L 2.015625 -4.21875 L 3.71875 0 L 3.40625 0 Z M 2.78125 -1.59375 L 2 -3.578125 L 1.203125 -1.59375 Z M 2.234375 -4.65625 C 2.128906 -4.65625 2.046875 -4.675781 1.984375 -4.71875 C 1.921875 -4.769531 1.847656 -4.835938 1.765625 -4.921875 C 1.691406 -4.992188 1.632812 -5.046875 1.59375 -5.078125 C 1.550781 -5.109375 1.5 -5.125 1.4375 -5.125 C 1.363281 -5.125 1.296875 -5.082031 1.234375 -5 C 1.179688 -4.925781 1.148438 -4.804688 1.140625 -4.640625 L 0.96875 -4.640625 C 0.96875 -4.859375 1.007812 -5.03125 1.09375 -5.15625 C 1.1875 -5.28125 1.304688 -5.34375 1.453125 -5.34375 C 1.535156 -5.34375 1.609375 -5.316406 1.671875 -5.265625 C 1.742188 -5.222656 1.816406 -5.160156 1.890625 -5.078125 C 1.960938 -5.003906 2.019531 -4.945312 2.0625 -4.90625 C 2.113281 -4.875 2.171875 -4.859375 2.234375 -4.859375 C 2.410156 -4.859375 2.503906 -5.023438 2.515625 -5.359375 L 2.6875 -5.359375 C 2.6875 -5.140625 2.644531 -4.96875 2.5625 -4.84375 C 2.476562 -4.71875 2.367188 -4.65625 2.234375 -4.65625 Z M 2.234375 -4.65625 "/></g></g></g><g fill="#0f4c81" fill-opacity="1"><g transform="translate(42.122119, 26.431892)"><g><path d="M 0.390625 -2.015625 C 0.390625 -2.390625 0.476562 -2.734375 0.65625 -3.046875 C 0.84375 -3.359375 1.09375 -3.609375 1.40625 -3.796875 C 1.726562 -3.984375 2.078125 -4.078125 2.453125 -4.078125 C 2.816406 -4.078125 3.15625 -3.984375 3.46875 -3.796875 C 3.789062 -3.609375 4.046875 -3.359375 4.234375 -3.046875 C 4.421875 -2.734375 4.515625 -2.390625 4.515625 -2.015625 C 4.515625 -1.640625 4.421875 -1.289062 4.234375 -0.96875 C 4.046875 -0.65625 3.789062 -0.40625 3.46875 -0.21875 C 3.15625 -0.0390625 2.816406 0.046875 2.453125 0.046875 C 2.066406 0.046875 1.71875 -0.0390625 1.40625 -0.21875 C 1.09375 -0.394531 0.84375 -0.640625 0.65625 -0.953125 C 0.476562 -1.273438 0.390625 -1.628906 0.390625 -2.015625 Z M 0.671875 -2 C 0.671875 -1.6875 0.75 -1.390625 0.90625 -1.109375 C 1.070312 -0.835938 1.285156 -0.617188 1.546875 -0.453125 C 1.816406 -0.296875 2.113281 -0.21875 2.4375 -0.21875 C 2.757812 -0.21875 3.054688 -0.296875 3.328125 -0.453125 C 3.609375 -0.617188 3.828125 -0.835938 3.984375 -1.109375 C 4.148438 -1.390625 4.234375 -1.691406 4.234375 -2.015625 C 4.234375 -2.335938 4.148438 -2.632812 3.984375 -2.90625 C 3.828125 -3.1875 3.609375 -3.40625 3.328125 -3.5625 C 3.054688 -3.726562 2.765625 -3.8125 2.453125 -3.8125 C 2.117188 -3.8125 1.816406 -3.726562 1.546875 -3.5625 C 1.273438 -3.40625 1.0625 -3.1875 0.90625 -2.90625 C 0.75 -2.625 0.671875 -2.320312 0.671875 -2 Z M 0.671875 -2 "/></g></g></g><g fill="#0f4c81" fill-opacity="1"><g transform="translate(47.020106, 26.431892)"><g/></g></g><g fill="#0f4c81" fill-opacity="1"><g transform="translate(48.764518, 26.431892)"><g><path d="M 2.90625 -4.03125 L 2.90625 -3.765625 L 0.921875 -3.765625 L 0.921875 -2.109375 L 2.671875 -2.109375 L 2.671875 -1.84375 L 0.921875 -1.84375 L 0.921875 0 L 0.640625 0 L 0.640625 -4.03125 Z M 2.90625 -4.03125 "/></g></g></g><g fill="#0f4c81" fill-opacity="1"><g transform="translate(52.048784, 26.431892)"><g><path d="M 0.921875 -4.03125 L 0.921875 0 L 0.640625 0 L 0.640625 -4.03125 Z M 0.921875 -4.03125 "/></g></g></g><g fill="#0f4c81" fill-opacity="1"><g transform="translate(53.611368, 26.431892)"><g><path d="M 4.03125 -4.03125 L 4.03125 0.09375 L 4.015625 0.09375 L 0.90625 -3.40625 L 0.921875 0 L 0.640625 0 L 0.640625 -4.125 L 0.65625 -4.125 L 3.765625 -0.59375 L 3.765625 -4.03125 Z M 4.03125 -4.03125 "/></g></g></g><g fill="#0f4c81" fill-opacity="1"><g transform="translate(58.282071, 26.431892)"><g><path d="M 2.890625 -1.34375 L 1.109375 -1.34375 L 0.5625 0 L 0.296875 0 L 2 -4.21875 L 2.015625 -4.21875 L 3.71875 0 L 3.40625 0 Z M 2.78125 -1.59375 L 2 -3.578125 L 1.203125 -1.59375 Z M 2.78125 -1.59375 "/></g></g></g><g fill="#0f4c81" fill-opacity="1"><g transform="translate(62.293649, 26.431892)"><g><path d="M 4.03125 -4.03125 L 4.03125 0.09375 L 4.015625 0.09375 L 0.90625 -3.40625 L 0.921875 0 L 0.640625 0 L 0.640625 -4.125 L 0.65625 -4.125 L 3.765625 -0.59375 L 3.765625 -4.03125 Z M 4.03125 -4.03125 "/></g></g></g><g fill="#0f4c81" fill-opacity="1"><g transform="translate(66.964352, 26.431892)"><g><path d="M 3.546875 -0.265625 C 3.398438 -0.171875 3.234375 -0.09375 3.046875 -0.03125 C 2.859375 0.0195312 2.660156 0.046875 2.453125 0.046875 C 2.046875 0.046875 1.6875 -0.0390625 1.375 -0.21875 C 1.0625 -0.40625 0.816406 -0.65625 0.640625 -0.96875 C 0.472656 -1.28125 0.390625 -1.617188 0.390625 -1.984375 C 0.390625 -2.378906 0.476562 -2.734375 0.65625 -3.046875 C 0.832031 -3.367188 1.078125 -3.617188 1.390625 -3.796875 C 1.703125 -3.984375 2.046875 -4.078125 2.421875 -4.078125 C 2.816406 -4.078125 3.1875 -3.976562 3.53125 -3.78125 L 3.40625 -3.515625 C 3.082031 -3.710938 2.753906 -3.8125 2.421875 -3.8125 C 2.109375 -3.8125 1.816406 -3.726562 1.546875 -3.5625 C 1.285156 -3.40625 1.070312 -3.1875 0.90625 -2.90625 C 0.75 -2.632812 0.671875 -2.332031 0.671875 -2 C 0.671875 -1.675781 0.742188 -1.378906 0.890625 -1.109375 C 1.035156 -0.835938 1.238281 -0.617188 1.5 -0.453125 C 1.769531 -0.296875 2.078125 -0.21875 2.421875 -0.21875 C 2.773438 -0.21875 3.101562 -0.316406 3.40625 -0.515625 Z M 3.546875 -0.265625 "/></g></g></g><g fill="#0f4c81" fill-opacity="1"><g transform="translate(70.890698, 26.431892)"><g><path d="M 3.140625 -4.03125 L 3.140625 -3.765625 L 0.921875 -3.765625 L 0.921875 -2.171875 L 2.90625 -2.171875 L 2.90625 -1.90625 L 0.921875 -1.90625 L 0.921875 -0.265625 L 3.21875 -0.265625 L 3.21875 0 L 0.640625 0 L 0.640625 -4.03125 Z M 3.140625 -4.03125 "/></g></g></g><g fill="#0f4c81" fill-opacity="1"><g transform="translate(74.521574, 26.431892)"><g><path d="M 0.921875 -4.03125 L 0.921875 0 L 0.640625 0 L 0.640625 -4.03125 Z M 0.921875 -4.03125 "/></g></g></g><g fill="#0f4c81" fill-opacity="1"><g transform="translate(76.084155, 26.431892)"><g><path d="M 2.90625 0 L 1.84375 -1.71875 C 1.769531 -1.695312 1.671875 -1.6875 1.546875 -1.6875 L 0.921875 -1.6875 L 0.921875 0 L 0.640625 0 L 0.640625 -4.03125 L 1.5625 -4.03125 C 1.769531 -4.03125 1.972656 -3.988281 2.171875 -3.90625 C 2.367188 -3.820312 2.53125 -3.695312 2.65625 -3.53125 C 2.78125 -3.363281 2.84375 -3.148438 2.84375 -2.890625 C 2.84375 -2.648438 2.785156 -2.425781 2.671875 -2.21875 C 2.554688 -2.019531 2.378906 -1.878906 2.140625 -1.796875 L 3.234375 0 Z M 1.53125 -1.96875 C 1.894531 -1.96875 2.15625 -2.054688 2.3125 -2.234375 C 2.46875 -2.421875 2.546875 -2.640625 2.546875 -2.890625 C 2.546875 -3.046875 2.507812 -3.191406 2.4375 -3.328125 C 2.363281 -3.460938 2.253906 -3.566406 2.109375 -3.640625 C 1.960938 -3.722656 1.796875 -3.765625 1.609375 -3.765625 L 0.921875 -3.765625 L 0.921875 -1.96875 Z M 1.53125 -1.96875 "/></g></g></g><g fill="#0f4c81" fill-opacity="1"><g transform="translate(79.680936, 26.431892)"><g><path d="M 2.890625 -1.34375 L 1.109375 -1.34375 L 0.5625 0 L 0.296875 0 L 2 -4.21875 L 2.015625 -4.21875 L 3.71875 0 L 3.40625 0 Z M 2.78125 -1.59375 L 2 -3.578125 L 1.203125 -1.59375 Z M 2.78125 -1.59375 "/></g></g></g></svg>