<svg xmlns="http://www.w3.org/2000/svg" xmlns:xlink="http://www.w3.org/1999/xlink" width="130" zoomAndPan="magnify" viewBox="0 0 97.5 30.000001" height="40" preserveAspectRatio="xMidYMid meet" version="1.0"><defs><g/><clipPath id="ef3c408974"><path d="M 42.988281 0 L 55 0 L 55 12 L 42.988281 12 Z M 42.988281 0 " clip-rule="nonzero"/></clipPath></defs><g fill="#03265b" fill-opacity="1"><g transform="translate(14.271242, 24.090909)"><g><path d="M 8.828125 -6.765625 C 9.671875 -6.765625 10.300781 -6.539062 10.71875 -6.09375 C 11.144531 -5.65625 11.359375 -4.953125 11.359375 -3.984375 L 11.359375 0 L 9.3125 0 L 9.3125 -3.984375 C 9.3125 -4.296875 9.238281 -4.535156 9.09375 -4.703125 C 8.957031 -4.878906 8.71875 -4.96875 8.375 -4.96875 C 7.957031 -4.96875 7.53125 -4.78125 7.09375 -4.40625 C 7.101562 -4.3125 7.109375 -4.171875 7.109375 -3.984375 L 7.109375 0 L 5.0625 0 L 5.0625 -3.984375 C 5.0625 -4.296875 4.988281 -4.535156 4.84375 -4.703125 C 4.707031 -4.878906 4.46875 -4.96875 4.125 -4.96875 C 3.71875 -4.96875 3.296875 -4.785156 2.859375 -4.421875 L 2.859375 0 L 0.8125 0 L 0.8125 -6.625 L 2.859375 -6.625 L 2.859375 -6.109375 C 3.128906 -6.335938 3.398438 -6.503906 3.671875 -6.609375 C 3.953125 -6.710938 4.257812 -6.765625 4.59375 -6.765625 C 5.625 -6.765625 6.332031 -6.429688 6.71875 -5.765625 C 7.070312 -6.109375 7.410156 -6.359375 7.734375 -6.515625 C 8.066406 -6.679688 8.429688 -6.765625 8.828125 -6.765625 Z M 8.828125 -6.765625 "/></g></g></g><g fill="#03265b" fill-opacity="1"><g transform="translate(25.91407, 24.090909)"><g><path d="M 0.8125 -9.4375 L 2.859375 -9.4375 L 2.859375 -7.671875 L 0.8125 -7.671875 Z M 0.8125 -6.625 L 2.859375 -6.625 L 2.859375 0 L 0.8125 0 Z M 0.8125 -6.625 "/></g></g></g><g fill="#03265b" fill-opacity="1"><g transform="translate(29.12023, 24.090909)"><g><path d="M 2.875 0.15625 C 2.1875 0.15625 1.671875 0.00390625 1.328125 -0.296875 C 0.984375 -0.609375 0.8125 -1.046875 0.8125 -1.609375 L 0.8125 -9.90625 L 2.859375 -9.90625 L 2.859375 -2.359375 C 2.859375 -2.097656 2.898438 -1.914062 2.984375 -1.8125 C 3.066406 -1.707031 3.222656 -1.65625 3.453125 -1.65625 C 3.710938 -1.65625 3.941406 -1.6875 4.140625 -1.75 L 4.140625 -0.015625 C 3.878906 0.0351562 3.65625 0.078125 3.46875 0.109375 C 3.28125 0.140625 3.082031 0.15625 2.875 0.15625 Z M 2.875 0.15625 "/></g></g></g><g fill="#03265b" fill-opacity="1"><g transform="translate(33.086978, 24.090909)"><g><path d="M 4.703125 -6.765625 C 5.585938 -6.765625 6.25 -6.539062 6.6875 -6.09375 C 7.125 -5.65625 7.34375 -4.953125 7.34375 -3.984375 L 7.34375 0 L 5.296875 0 L 5.296875 -3.984375 C 5.296875 -4.296875 5.21875 -4.535156 5.0625 -4.703125 C 4.90625 -4.878906 4.632812 -4.96875 4.25 -4.96875 C 3.789062 -4.96875 3.328125 -4.78125 2.859375 -4.40625 L 2.859375 0 L 0.8125 0 L 0.8125 -9.90625 L 2.859375 -9.90625 L 2.859375 -6.09375 C 3.140625 -6.320312 3.429688 -6.488281 3.734375 -6.59375 C 4.035156 -6.707031 4.359375 -6.765625 4.703125 -6.765625 Z M 4.703125 -6.765625 "/></g></g></g><g fill="#03265b" fill-opacity="1"><g transform="translate(40.716245, 24.090909)"><g><path d="M 3.953125 0.203125 C 3.191406 0.203125 2.546875 0.0507812 2.015625 -0.25 C 1.484375 -0.5625 1.082031 -0.984375 0.8125 -1.515625 C 0.539062 -2.046875 0.40625 -2.644531 0.40625 -3.3125 C 0.40625 -3.96875 0.539062 -4.5625 0.8125 -5.09375 C 1.082031 -5.625 1.484375 -6.039062 2.015625 -6.34375 C 2.546875 -6.65625 3.191406 -6.8125 3.953125 -6.8125 C 4.710938 -6.8125 5.359375 -6.65625 5.890625 -6.34375 C 6.421875 -6.039062 6.816406 -5.625 7.078125 -5.09375 C 7.347656 -4.5625 7.484375 -3.96875 7.484375 -3.3125 C 7.484375 -2.644531 7.347656 -2.046875 7.078125 -1.515625 C 6.816406 -0.984375 6.421875 -0.5625 5.890625 -0.25 C 5.359375 0.0507812 4.710938 0.203125 3.953125 0.203125 Z M 3.953125 -1.53125 C 4.410156 -1.53125 4.757812 -1.679688 5 -1.984375 C 5.238281 -2.296875 5.359375 -2.738281 5.359375 -3.3125 C 5.359375 -3.882812 5.238281 -4.320312 5 -4.625 C 4.757812 -4.925781 4.410156 -5.078125 3.953125 -5.078125 C 3.484375 -5.078125 3.128906 -4.925781 2.890625 -4.625 C 2.648438 -4.320312 2.53125 -3.882812 2.53125 -3.3125 C 2.53125 -2.738281 2.648438 -2.296875 2.890625 -1.984375 C 3.128906 -1.679688 3.484375 -1.53125 3.953125 -1.53125 Z M 3.953125 -1.53125 "/></g></g></g><g fill="#03265b" fill-opacity="1"><g transform="translate(48.134887, 24.090909)"><g><path d="M 4.703125 -6.765625 C 5.585938 -6.765625 6.25 -6.539062 6.6875 -6.09375 C 7.125 -5.65625 7.34375 -4.953125 7.34375 -3.984375 L 7.34375 0 L 5.296875 0 L 5.296875 -3.984375 C 5.296875 -4.296875 5.21875 -4.535156 5.0625 -4.703125 C 4.90625 -4.878906 4.632812 -4.96875 4.25 -4.96875 C 3.789062 -4.96875 3.328125 -4.78125 2.859375 -4.40625 L 2.859375 0 L 0.8125 0 L 0.8125 -6.625 L 2.859375 -6.625 L 2.859375 -6.09375 C 3.140625 -6.320312 3.429688 -6.488281 3.734375 -6.59375 C 4.035156 -6.707031 4.359375 -6.765625 4.703125 -6.765625 Z M 4.703125 -6.765625 "/></g></g></g><g fill="#03265b" fill-opacity="1"><g transform="translate(55.764156, 24.090909)"><g><path d="M 3.390625 -6.625 C 4.253906 -6.625 4.910156 -6.507812 5.359375 -6.28125 C 5.804688 -6.050781 6.101562 -5.742188 6.25 -5.359375 C 6.394531 -4.972656 6.46875 -4.484375 6.46875 -3.890625 L 6.46875 0 L 4.4375 0 L 4.4375 -0.53125 C 4.164062 -0.28125 3.894531 -0.101562 3.625 0 C 3.363281 0.101562 3.070312 0.15625 2.75 0.15625 C 2 0.15625 1.410156 -0.0390625 0.984375 -0.4375 C 0.554688 -0.832031 0.34375 -1.378906 0.34375 -2.078125 C 0.34375 -2.785156 0.5625 -3.332031 1 -3.71875 C 1.4375 -4.101562 2.039062 -4.296875 2.8125 -4.296875 C 3.445312 -4.296875 3.988281 -4.175781 4.4375 -3.9375 C 4.425781 -4.15625 4.390625 -4.328125 4.328125 -4.453125 C 4.273438 -4.585938 4.160156 -4.691406 3.984375 -4.765625 C 3.804688 -4.835938 3.550781 -4.875 3.21875 -4.875 L 1.890625 -4.875 L 1.890625 -6.625 Z M 3.1875 -1.421875 C 3.582031 -1.421875 4 -1.597656 4.4375 -1.953125 L 4.4375 -2.578125 C 4.0625 -2.753906 3.679688 -2.84375 3.296875 -2.84375 C 3.015625 -2.84375 2.796875 -2.78125 2.640625 -2.65625 C 2.484375 -2.539062 2.40625 -2.359375 2.40625 -2.109375 C 2.40625 -1.847656 2.472656 -1.664062 2.609375 -1.5625 C 2.742188 -1.46875 2.9375 -1.421875 3.1875 -1.421875 Z M 3.1875 -1.421875 "/></g></g></g><g fill="#03265b" fill-opacity="1"><g transform="translate(62.527523, 24.090909)"><g><path d="M 4.921875 -6.765625 L 4.921875 -4.96875 L 4.65625 -4.96875 C 4.050781 -4.96875 3.453125 -4.75 2.859375 -4.3125 L 2.859375 0 L 0.8125 0 L 0.8125 -6.625 L 2.859375 -6.625 L 2.859375 -6.03125 C 3.140625 -6.28125 3.425781 -6.460938 3.71875 -6.578125 C 4.019531 -6.703125 4.332031 -6.765625 4.65625 -6.765625 Z M 4.921875 -6.765625 "/></g></g></g><g fill="#03265b" fill-opacity="1"><g transform="translate(67.336769, 24.090909)"><g><path d="M 0.8125 -9.4375 L 2.859375 -9.4375 L 2.859375 -7.671875 L 0.8125 -7.671875 Z M 0.8125 -6.625 L 2.859375 -6.625 L 2.859375 0 L 0.8125 0 Z M 0.8125 -6.625 "/></g></g></g><g fill="#03265b" fill-opacity="1"><g transform="translate(70.542929, 24.090909)"><g><path d="M 6.265625 -1.78125 L 6.265625 0 L 0.765625 0 L 0.765625 -1.78125 L 3.640625 -4.84375 L 0.96875 -4.84375 L 0.96875 -6.625 L 6 -6.625 L 6 -4.84375 L 3.140625 -1.78125 Z M 6.265625 -1.78125 "/></g></g></g><g fill="#03265b" fill-opacity="1"><g transform="translate(76.80314, 24.090909)"><g><path d="M 2.59375 -2.6875 C 2.6875 -2.3125 2.863281 -2.015625 3.125 -1.796875 C 3.394531 -1.585938 3.789062 -1.484375 4.3125 -1.484375 C 4.625 -1.484375 4.914062 -1.519531 5.1875 -1.59375 C 5.46875 -1.664062 5.785156 -1.796875 6.140625 -1.984375 L 6.671875 -0.40625 C 6.265625 -0.175781 5.863281 -0.0195312 5.46875 0.0625 C 5.070312 0.15625 4.59375 0.203125 4.03125 0.203125 C 3.257812 0.203125 2.601562 0.0546875 2.0625 -0.234375 C 1.519531 -0.523438 1.109375 -0.9375 0.828125 -1.46875 C 0.546875 -2 0.40625 -2.617188 0.40625 -3.328125 C 0.40625 -4.054688 0.550781 -4.679688 0.84375 -5.203125 C 1.132812 -5.734375 1.523438 -6.132812 2.015625 -6.40625 C 2.503906 -6.675781 3.050781 -6.8125 3.65625 -6.8125 C 4.632812 -6.8125 5.398438 -6.523438 5.953125 -5.953125 C 6.503906 -5.390625 6.78125 -4.566406 6.78125 -3.484375 L 6.78125 -2.6875 Z M 3.65625 -5.125 C 3.375 -5.125 3.144531 -5.050781 2.96875 -4.90625 C 2.800781 -4.769531 2.679688 -4.53125 2.609375 -4.1875 L 4.640625 -4.1875 C 4.609375 -4.519531 4.515625 -4.757812 4.359375 -4.90625 C 4.203125 -5.050781 3.96875 -5.125 3.65625 -5.125 Z M 3.65625 -5.125 "/></g></g></g><path fill="#ffffff" d="M 54.050781 5.839844 C 54.050781 6.175781 54.019531 6.507812 53.953125 6.835938 C 53.886719 7.164062 53.789062 7.484375 53.65625 7.796875 C 53.527344 8.105469 53.367188 8.398438 53.179688 8.679688 C 52.988281 8.957031 52.773438 9.214844 52.535156 9.453125 C 52.292969 9.691406 52.03125 9.902344 51.75 10.089844 C 51.46875 10.277344 51.167969 10.433594 50.855469 10.5625 C 50.542969 10.691406 50.21875 10.785156 49.882812 10.851562 C 49.550781 10.917969 49.214844 10.949219 48.875 10.949219 C 48.535156 10.949219 48.199219 10.917969 47.863281 10.851562 C 47.53125 10.785156 47.207031 10.691406 46.894531 10.5625 C 46.578125 10.433594 46.28125 10.277344 45.996094 10.089844 C 45.714844 9.902344 45.453125 9.691406 45.214844 9.453125 C 44.972656 9.214844 44.757812 8.957031 44.570312 8.679688 C 44.378906 8.398438 44.222656 8.105469 44.089844 7.796875 C 43.960938 7.484375 43.863281 7.164062 43.796875 6.835938 C 43.730469 6.507812 43.695312 6.175781 43.695312 5.839844 C 43.695312 5.503906 43.730469 5.171875 43.796875 4.84375 C 43.863281 4.511719 43.960938 4.195312 44.089844 3.882812 C 44.222656 3.574219 44.378906 3.28125 44.570312 3 C 44.757812 2.722656 44.972656 2.464844 45.214844 2.226562 C 45.453125 1.988281 45.714844 1.777344 45.996094 1.589844 C 46.28125 1.402344 46.578125 1.246094 46.894531 1.117188 C 47.207031 0.988281 47.53125 0.894531 47.863281 0.828125 C 48.199219 0.761719 48.535156 0.730469 48.875 0.730469 C 49.214844 0.730469 49.550781 0.761719 49.882812 0.828125 C 50.21875 0.894531 50.542969 0.988281 50.855469 1.117188 C 51.167969 1.246094 51.46875 1.402344 51.75 1.589844 C 52.03125 1.777344 52.292969 1.988281 52.535156 2.226562 C 52.773438 2.464844 52.988281 2.722656 53.179688 3 C 53.367188 3.28125 53.527344 3.574219 53.65625 3.882812 C 53.789062 4.195312 53.886719 4.511719 53.953125 4.84375 C 54.019531 5.171875 54.050781 5.503906 54.050781 5.839844 Z M 54.050781 5.839844 " fill-opacity="1" fill-rule="nonzero"/><g clip-path="url(#ef3c408974)"><path fill="#f69d18" d="M 53.417969 2.117188 C 53.121094 1.78125 52.789062 1.484375 52.425781 1.226562 C 52.058594 0.964844 51.667969 0.746094 51.253906 0.574219 C 50.835938 0.402344 50.40625 0.277344 49.960938 0.203125 C 49.519531 0.125 49.070312 0.101562 48.621094 0.125 C 48.171875 0.148438 47.730469 0.222656 47.296875 0.34375 C 46.863281 0.46875 46.449219 0.636719 46.054688 0.851562 C 45.660156 1.070312 45.296875 1.328125 44.960938 1.625 C 44.625 1.921875 44.328125 2.253906 44.070312 2.617188 C 43.933594 2.808594 43.8125 3.003906 43.699219 3.207031 C 43.273438 3.984375 43.042969 4.8125 43 5.695312 C 42.992188 5.792969 42.992188 5.894531 42.992188 5.992188 C 42.992188 6.230469 43.003906 6.464844 43.035156 6.703125 C 43.0625 6.9375 43.105469 7.167969 43.164062 7.398438 C 43.21875 7.628906 43.292969 7.855469 43.375 8.074219 C 43.460938 8.296875 43.558594 8.511719 43.671875 8.722656 C 43.78125 8.933594 43.90625 9.136719 44.042969 9.328125 C 44.179688 9.523438 44.324219 9.710938 44.484375 9.886719 C 44.644531 10.066406 44.8125 10.234375 44.992188 10.390625 C 45.171875 10.546875 45.359375 10.695312 45.554688 10.828125 C 45.753906 10.964844 45.957031 11.085938 46.171875 11.195312 C 46.382812 11.308594 46.601562 11.402344 46.824219 11.488281 C 47.050781 11.574219 47.277344 11.644531 47.511719 11.699219 C 47.742188 11.757812 47.980469 11.800781 48.21875 11.828125 C 48.457031 11.859375 48.695312 11.875 48.933594 11.875 C 49.175781 11.875 49.414062 11.859375 49.652344 11.832031 C 49.890625 11.804688 50.125 11.761719 50.359375 11.707031 C 50.589844 11.648438 50.820312 11.582031 51.042969 11.496094 C 51.269531 11.414062 51.488281 11.316406 51.699219 11.207031 C 51.914062 11.097656 52.117188 10.976562 52.316406 10.84375 C 52.515625 10.707031 52.703125 10.5625 52.882812 10.40625 C 53.0625 10.25 53.234375 10.082031 53.390625 9.90625 C 53.550781 9.730469 53.699219 9.542969 53.835938 9.351562 C 53.972656 9.15625 54.097656 8.953125 54.210938 8.746094 C 54.324219 8.535156 54.421875 8.320312 54.507812 8.097656 C 54.59375 7.878906 54.664062 7.652344 54.722656 7.421875 C 54.78125 7.191406 54.828125 6.960938 54.855469 6.726562 C 54.886719 6.492188 54.902344 6.253906 54.902344 6.019531 C 54.902344 5.78125 54.890625 5.542969 54.863281 5.308594 C 54.832031 5.074219 54.792969 4.84375 54.734375 4.613281 C 54.679688 4.382812 54.609375 4.15625 54.523438 3.933594 C 54.441406 3.710938 54.34375 3.496094 54.230469 3.285156 C 54.121094 3.074219 54 2.871094 53.863281 2.675781 C 53.726562 2.480469 53.582031 2.296875 53.421875 2.117188 Z M 46.957031 6.804688 C 47.460938 7.152344 47.929688 7.363281 48.417969 7.441406 L 48.417969 6.507812 C 47.152344 6.222656 46.507812 5.796875 46.507812 4.835938 L 46.507812 4.820312 C 46.507812 3.90625 47.183594 3.269531 48.386719 3.183594 L 48.386719 2.742188 L 49.203125 2.742188 L 49.203125 3.207031 C 49.808594 3.269531 50.359375 3.472656 50.859375 3.8125 L 50.214844 4.851562 C 49.894531 4.632812 49.542969 4.476562 49.164062 4.390625 L 49.164062 5.289062 C 50.410156 5.574219 51.039062 6.015625 51.039062 6.980469 L 51.039062 6.992188 C 51.039062 7.9375 50.300781 8.519531 49.1875 8.621094 L 49.1875 9.382812 L 48.371094 9.382812 L 48.371094 8.601562 C 47.597656 8.527344 46.890625 8.273438 46.25 7.832031 Z M 46.957031 6.804688 " fill-opacity="1" fill-rule="nonzero"/></g><path fill="#f69d18" d="M 49.683594 7.089844 L 49.683594 7.074219 C 49.683594 6.863281 49.5625 6.75 49.15625 6.632812 L 49.15625 7.484375 C 49.515625 7.445312 49.683594 7.316406 49.683594 7.089844 Z M 49.683594 7.089844 " fill-opacity="1" fill-rule="nonzero"/><path fill="#f69d18" d="M 48.425781 4.316406 C 48.042969 4.347656 47.890625 4.5 47.890625 4.703125 L 47.890625 4.71875 C 47.890625 4.917969 48.003906 5.035156 48.425781 5.152344 Z M 48.425781 4.316406 " fill-opacity="1" fill-rule="nonzero"/></svg>