<svg xmlns="http://www.w3.org/2000/svg" xmlns:xlink="http://www.w3.org/1999/xlink" width="130" zoomAndPan="magnify" viewBox="0 0 97.5 30.000001" height="40" preserveAspectRatio="xMidYMid meet" version="1.0"><defs><g/><clipPath id="ef0a8605e8"><path d="M 8 22 L 16 22 L 16 28.402344 L 8 28.402344 Z M 8 22 " clip-rule="nonzero"/></clipPath><clipPath id="b70b184772"><path d="M 8 22 L 17 22 L 17 28.402344 L 8 28.402344 Z M 8 22 " clip-rule="nonzero"/></clipPath><clipPath id="46451fb1b0"><path d="M 1.585938 3 L 13 3 L 13 25 L 1.585938 25 Z M 1.585938 3 " clip-rule="nonzero"/></clipPath><clipPath id="4f958a319f"><path d="M 1.585938 2 L 13 2 L 13 25 L 1.585938 25 Z M 1.585938 2 " clip-rule="nonzero"/></clipPath><clipPath id="37c9b7c53f"><path d="M 13 0.679688 L 15 0.679688 L 15 4 L 13 4 Z M 13 0.679688 " clip-rule="nonzero"/></clipPath><clipPath id="fa41d7252b"><path d="M 22 13 L 24.933594 13 L 24.933594 15 L 22 15 Z M 22 13 " clip-rule="nonzero"/></clipPath><clipPath id="ac50080872"><path d="M 21 8 L 24.933594 8 L 24.933594 10 L 21 10 Z M 21 8 " clip-rule="nonzero"/></clipPath><clipPath id="67c9c5e7bf"><path d="M 21 17 L 24.933594 17 L 24.933594 19 L 21 19 Z M 21 17 " clip-rule="nonzero"/></clipPath><clipPath id="fdef49d254"><path d="M 90 14 L 95.683594 14 L 95.683594 21 L 90 21 Z M 90 14 " clip-rule="nonzero"/></clipPath><clipPath id="cd4d94b396"><path d="M 25 12 L 95.683594 12 L 95.683594 22 L 25 22 Z M 25 12 " clip-rule="nonzero"/></clipPath></defs><path fill="#ffffff" d="M 18.003906 6.996094 C 18.003906 6.996094 17.558594 6.640625 17.160156 6.382812 C 15.492188 5.300781 13.933594 4.933594 12.546875 4.957031 C 12.496094 4.957031 12.445312 4.957031 12.398438 4.957031 L 12.398438 26.121094 L 14.644531 26.121094 C 15.136719 23.59375 16.359375 21.972656 16.964844 21.296875 C 17.074219 21.1875 17.191406 21.066406 17.3125 20.9375 C 19.925781 18.207031 23.90625 12.050781 18.003906 6.996094 " fill-opacity="1" fill-rule="nonzero"/><path stroke-linecap="round" transform="matrix(0.0140083, 0, 0, -0.0137579, -16.521461, 43.784265)" fill="none" stroke-linejoin="round" d="M 2464.633995 2673.975208 C 2464.633995 2673.975208 2432.844838 2699.812715 2404.401908 2718.552006 C 2285.331994 2797.20024 2174.069943 2823.889532 2075.077392 2822.185961 C 2071.452312 2822.185961 2067.827233 2822.185961 2064.481006 2822.185961 L 2064.481006 1283.860569 L 2224.821054 1283.860569 C 2259.956438 1467.562401 2347.237195 1585.392788 2390.459295 1634.512444 C 2398.267158 1642.462446 2406.632726 1651.264234 2415.277146 1660.633879 C 2601.829306 1859.100001 2885.979756 2306.571543 2464.633995 2673.975208 Z M 2464.633995 2673.975208 " stroke="#040200" stroke-width="40" stroke-opacity="1" stroke-miterlimit="10"/><path stroke-linecap="round" transform="matrix(0.0140083, 0, 0, -0.0137579, -16.521461, 43.784265)" fill-opacity="1" fill="#ffffff" fill-rule="nonzero" stroke-linejoin="round" d="M 2179.089284 1482.326691 L 2179.089284 1907.36787 L 2314.332629 2017.816113 L 2064.481006 2017.816113 " stroke="#040200" stroke-width="40" stroke-opacity="1" stroke-miterlimit="10"/><g clip-path="url(#ef0a8605e8)"><path fill="#ffffff" d="M 15.769531 22.992188 L 8.921875 22.992188 L 8.921875 25.578125 L 9.339844 25.578125 L 9.339844 26.972656 L 9.738281 26.972656 L 9.738281 28.117188 L 14.949219 28.117188 L 14.949219 26.972656 L 15.347656 26.972656 L 15.347656 25.578125 L 15.769531 25.578125 L 15.769531 22.992188 " fill-opacity="1" fill-rule="nonzero"/></g><g clip-path="url(#b70b184772)"><path stroke-linecap="round" transform="matrix(0.0140083, 0, 0, -0.0137579, -16.521461, 43.784265)" fill="none" stroke-linejoin="round" d="M 2305.130504 1511.287412 L 1816.302497 1511.287412 L 1816.302497 1323.32665 L 1846.139689 1323.32665 L 1846.139689 1221.964124 L 1874.582619 1221.964124 L 1874.582619 1138.773032 L 2246.57153 1138.773032 L 2246.57153 1221.964124 L 2275.01446 1221.964124 L 2275.01446 1323.32665 L 2305.130504 1323.32665 Z M 2305.130504 1511.287412 " stroke="#040200" stroke-width="40" stroke-opacity="1" stroke-miterlimit="10"/></g><g clip-path="url(#46451fb1b0)"><path fill="#ffffff" d="M 10.3125 3.105469 C 9.660156 3.105469 9.078125 3.375 8.695312 3.792969 C 8.441406 3.722656 8.171875 3.679688 7.890625 3.679688 C 6.535156 3.679688 5.4375 4.578125 5.4375 5.683594 C 5.4375 5.699219 5.4375 5.71875 5.4375 5.738281 C 4.714844 6.039062 4.21875 6.65625 4.21875 7.363281 C 4.21875 7.757812 4.371094 8.121094 4.628906 8.417969 C 3.941406 8.859375 3.496094 9.546875 3.496094 10.316406 C 3.496094 10.71875 3.617188 11.09375 3.828125 11.429688 C 2.667969 11.910156 1.867188 12.886719 1.867188 14.023438 C 1.867188 15.125 2.625 16.089844 3.734375 16.578125 C 3.582031 16.871094 3.496094 17.195312 3.496094 17.535156 C 3.496094 18.21875 3.84375 18.835938 4.40625 19.273438 C 4.285156 19.5 4.21875 19.746094 4.21875 20.007812 C 4.21875 20.773438 4.796875 21.429688 5.613281 21.703125 C 5.5 21.933594 5.4375 22.183594 5.4375 22.449219 C 5.4375 23.554688 6.535156 24.449219 7.890625 24.449219 C 8.289062 24.449219 8.664062 24.371094 9 24.234375 C 9.359375 24.492188 9.8125 24.648438 10.3125 24.648438 C 11.464844 24.648438 12.398438 23.8125 12.398438 22.78125 L 12.398438 4.976562 C 12.398438 3.941406 11.464844 3.105469 10.3125 3.105469 " fill-opacity="1" fill-rule="nonzero"/></g><g clip-path="url(#4f958a319f)"><path stroke-linecap="round" transform="matrix(0.0140083, 0, 0, -0.0137579, -16.521461, 43.784265)" fill="none" stroke-linejoin="round" d="M 1915.573901 2956.768138 C 1869.005574 2956.768138 1827.456587 2937.177061 1800.129066 2906.796696 C 1782.003669 2911.907412 1762.762864 2915.030627 1742.685501 2915.030627 C 1645.923768 2915.030627 1567.566284 2849.727039 1567.566284 2769.375233 C 1567.566284 2768.239518 1567.566284 2766.819875 1567.566284 2765.400232 C 1515.978616 2743.537726 1480.564379 2698.677 1480.564379 2647.285916 C 1480.564379 2618.609123 1491.439617 2592.203759 1509.843866 2570.625182 C 1460.765869 2538.541245 1428.976712 2488.569804 1428.976712 2432.635861 C 1428.976712 2403.391211 1437.621132 2376.134061 1452.679154 2351.716198 C 1369.860033 2316.792975 1312.695321 2245.810814 1312.695321 2163.187578 C 1312.695321 2083.119701 1366.792659 2012.989326 1445.9867 1977.498245 C 1435.111462 1956.203597 1428.976712 1932.63752 1428.976712 1907.935728 C 1428.976712 1858.248215 1453.794563 1813.387489 1493.949288 1781.587481 C 1485.304868 1765.11962 1480.564379 1747.232115 1480.564379 1728.208896 C 1480.564379 1672.558882 1521.834514 1624.85887 1580.114635 1604.983865 C 1572.02792 1588.232075 1567.566284 1570.060642 1567.566284 1550.753494 C 1567.566284 1470.401688 1645.923768 1405.382028 1742.685501 1405.382028 C 1771.128431 1405.382028 1797.898248 1411.060601 1821.879542 1420.998104 C 1847.53395 1402.258813 1879.880812 1390.901667 1915.573901 1390.901667 C 1997.835317 1390.901667 2064.481006 1451.662397 2064.481006 1526.619559 L 2064.481006 2820.766317 C 2064.481006 2896.007408 1997.835317 2956.768138 1915.573901 2956.768138 Z M 1915.573901 2956.768138 " stroke="#040200" stroke-width="40" stroke-opacity="1" stroke-miterlimit="10"/></g><path stroke-linecap="round" transform="matrix(0.0140083, 0, 0, -0.0137579, -16.521461, 43.784265)" fill-opacity="1" fill="#ffffff" fill-rule="nonzero" stroke-linejoin="round" d="M 1800.407918 2833.259178 C 1800.407918 2833.259178 1736.271899 2772.214519 1816.302497 2710.885932 " stroke="#040200" stroke-width="40" stroke-opacity="1" stroke-miterlimit="10"/><path stroke-linecap="round" transform="matrix(0.0140083, 0, 0, -0.0137579, -16.521461, 43.784265)" fill-opacity="1" fill="#ffffff" fill-rule="nonzero" stroke-linejoin="round" d="M 1793.436612 1560.407068 C 1793.436612 1560.407068 1735.993047 1493.683836 1821.879542 1439.737394 " stroke="#040200" stroke-width="40" stroke-opacity="1" stroke-miterlimit="10"/><path stroke-linecap="round" transform="matrix(0.0140083, 0, 0, -0.0137579, -16.521461, 43.784265)" fill-opacity="1" fill="#ffffff" fill-rule="nonzero" stroke-linejoin="round" d="M 1584.576271 2769.659161 C 1584.576271 2769.659161 1652.058518 2806.569885 1696.674879 2760.573445 " stroke="#040200" stroke-width="40" stroke-opacity="1" stroke-miterlimit="10"/><path stroke-linecap="round" transform="matrix(0.0140083, 0, 0, -0.0137579, -16.521461, 43.784265)" fill-opacity="1" fill="#ffffff" fill-rule="nonzero" stroke-linejoin="round" d="M 1550.277444 1805.721416 C 1565.335466 1831.274994 1594.614953 1857.396429 1652.33737 1861.655359 " stroke="#040200" stroke-width="40" stroke-opacity="1" stroke-miterlimit="10"/><path stroke-linecap="round" transform="matrix(0.0140083, 0, 0, -0.0137579, -16.521461, 43.784265)" fill-opacity="1" fill="#ffffff" fill-rule="nonzero" stroke-linejoin="round" d="M 1355.91742 2045.64112 C 1355.91742 2045.64112 1462.16013 1894.307153 1657.914415 2010.150039 " stroke="#040200" stroke-width="40" stroke-opacity="1" stroke-miterlimit="10"/><path stroke-linecap="round" transform="matrix(0.0140083, 0, 0, -0.0137579, -16.521461, 43.784265)" fill-opacity="1" fill="#ffffff" fill-rule="nonzero" stroke-linejoin="round" d="M 1579.835783 1497.374909 C 1579.835783 1497.374909 1518.767139 1619.180297 1688.588163 1708.61782 " stroke="#040200" stroke-width="40" stroke-opacity="1" stroke-miterlimit="10"/><path stroke-linecap="round" transform="matrix(0.0140083, 0, 0, -0.0137579, -16.521461, 43.784265)" fill-opacity="1" fill="#ffffff" fill-rule="nonzero" stroke-linejoin="round" d="M 1437.621132 2482.323374 C 1437.621132 2482.323374 1480.843232 2639.051985 1688.588163 2571.476968 " stroke="#040200" stroke-width="40" stroke-opacity="1" stroke-miterlimit="10"/><path stroke-linecap="round" transform="matrix(0.0140083, 0, 0, -0.0137579, -16.521461, 43.784265)" fill-opacity="1" fill="#ffffff" fill-rule="nonzero" stroke-linejoin="round" d="M 1488.929947 2317.360832 C 1488.929947 2317.360832 1544.421546 2258.303674 1635.327382 2289.535825 " stroke="#040200" stroke-width="40" stroke-opacity="1" stroke-miterlimit="10"/><g clip-path="url(#37c9b7c53f)"><path stroke-linecap="round" transform="matrix(0.0140083, 0, 0, -0.0137579, -16.521461, 43.784265)" fill="none" stroke-linejoin="round" d="M 2167.935193 3113.21282 L 2167.935193 2945.410992 " stroke="#040200" stroke-width="40" stroke-opacity="1" stroke-miterlimit="10"/></g><g clip-path="url(#fa41d7252b)"><path stroke-linecap="round" transform="matrix(0.0140083, 0, 0, -0.0137579, -16.521461, 43.784265)" fill="none" stroke-linejoin="round" d="M 2939.240537 2173.692938 L 2771.371478 2173.692938 " stroke="#040200" stroke-width="40" stroke-opacity="1" stroke-miterlimit="10"/></g><path stroke-linecap="round" transform="matrix(0.0140083, 0, 0, -0.0137579, -16.521461, 43.784265)" fill-opacity="1" fill="#ffffff" fill-rule="nonzero" stroke-linejoin="round" d="M 2726.476265 2859.096684 L 2606.569794 2741.550226 " stroke="#040200" stroke-width="40" stroke-opacity="1" stroke-miterlimit="10"/><path stroke-linecap="round" transform="matrix(0.0140083, 0, 0, -0.0137579, -16.521461, 43.784265)" fill-opacity="1" fill="#ffffff" fill-rule="nonzero" stroke-linejoin="round" d="M 2519.56789 3041.094945 L 2432.287133 2897.71098 " stroke="#040200" stroke-width="40" stroke-opacity="1" stroke-miterlimit="10"/><path fill="#ffffff" d="M 23.996094 8.644531 L 21.765625 9.378906 " fill-opacity="1" fill-rule="nonzero"/><g clip-path="url(#ac50080872)"><path stroke-linecap="round" transform="matrix(0.0140083, 0, 0, -0.0137579, -16.521461, 43.784265)" fill="none" stroke-linejoin="round" d="M 2892.393358 2554.157321 L 2733.168719 2500.778736 " stroke="#040200" stroke-width="40" stroke-opacity="1" stroke-miterlimit="10"/></g><path stroke-linecap="round" transform="matrix(0.0140083, 0, 0, -0.0137579, -16.521461, 43.784265)" fill-opacity="1" fill="#ffffff" fill-rule="nonzero" stroke-linejoin="round" d="M 2743.486252 1568.924927 L 2623.579782 1686.471385 " stroke="#040200" stroke-width="40" stroke-opacity="1" stroke-miterlimit="10"/><path fill="#ffffff" d="M 23.859375 18.699219 L 21.765625 17.648438 " fill-opacity="1" fill-rule="nonzero"/><g clip-path="url(#67c9c5e7bf)"><path stroke-linecap="round" transform="matrix(0.0140083, 0, 0, -0.0137579, -16.521461, 43.784265)" fill="none" stroke-linejoin="round" d="M 2882.633529 1823.324992 L 2733.168719 1899.701797 " stroke="#040200" stroke-width="40" stroke-opacity="1" stroke-miterlimit="10"/></g><path fill="#ffffff" d="M 7.28125 16.132812 C 7.28125 16.445312 7.019531 16.699219 6.703125 16.699219 C 6.382812 16.699219 6.125 16.445312 6.125 16.132812 C 6.125 15.820312 6.382812 15.5625 6.703125 15.5625 C 7.019531 15.5625 7.28125 15.820312 7.28125 16.132812 " fill-opacity="1" fill-rule="nonzero"/><path stroke-linecap="round" transform="matrix(0.0140083, 0, 0, -0.0137579, -16.521461, 43.784265)" fill="none" stroke-linejoin="round" d="M 1699.184549 2009.866111 C 1699.184549 1987.151819 1680.501448 1968.696457 1657.914415 1968.696457 C 1635.04853 1968.696457 1616.644281 1987.151819 1616.644281 2009.866111 C 1616.644281 2032.580402 1635.04853 2051.319693 1657.914415 2051.319693 C 1680.501448 2051.319693 1699.184549 2032.580402 1699.184549 2009.866111 Z M 1699.184549 2009.866111 " stroke="#040200" stroke-width="40" stroke-opacity="1" stroke-miterlimit="10"/><path fill="#ffffff" d="M 7.710938 8.441406 C 7.710938 8.757812 7.453125 9.011719 7.132812 9.011719 C 6.8125 9.011719 6.554688 8.757812 6.554688 8.441406 C 6.554688 8.128906 6.8125 7.875 7.132812 7.875 C 7.453125 7.875 7.710938 8.128906 7.710938 8.441406 " fill-opacity="1" fill-rule="nonzero"/><path stroke-linecap="round" transform="matrix(0.0140083, 0, 0, -0.0137579, -16.521461, 43.784265)" fill="none" stroke-linejoin="round" d="M 1729.858297 2568.92161 C 1729.858297 2545.92339 1711.454048 2527.468028 1688.588163 2527.468028 C 1665.722278 2527.468028 1647.318029 2545.92339 1647.318029 2568.92161 C 1647.318029 2591.635902 1665.722278 2610.091264 1688.588163 2610.091264 C 1711.454048 2610.091264 1729.858297 2591.635902 1729.858297 2568.92161 Z M 1729.858297 2568.92161 " stroke="#040200" stroke-width="40" stroke-opacity="1" stroke-miterlimit="10"/><path fill="#ffffff" d="M 9.015625 22.386719 C 9.015625 22.625 8.816406 22.820312 8.574219 22.820312 C 8.328125 22.820312 8.128906 22.625 8.128906 22.386719 C 8.128906 22.148438 8.328125 21.953125 8.574219 21.953125 C 8.816406 21.953125 9.015625 22.148438 9.015625 22.386719 " fill-opacity="1" fill-rule="nonzero"/><path stroke-linecap="round" transform="matrix(0.0140083, 0, 0, -0.0137579, -16.521461, 43.784265)" fill="none" stroke-linejoin="round" d="M 1822.994951 1555.296352 C 1822.994951 1537.976705 1808.773486 1523.780273 1791.484646 1523.780273 C 1773.916954 1523.780273 1759.695489 1537.976705 1759.695489 1555.296352 C 1759.695489 1572.615999 1773.916954 1586.812432 1791.484646 1586.812432 C 1808.773486 1586.812432 1822.994951 1572.615999 1822.994951 1555.296352 Z M 1822.994951 1555.296352 " stroke="#040200" stroke-width="40" stroke-opacity="1" stroke-miterlimit="10"/><path stroke-linecap="round" transform="matrix(0.0140083, 0, 0, -0.0137579, -16.521461, 43.784265)" fill="none" stroke-linejoin="round" d="M 2064.481006 2317.360832 L 1886.852118 2317.360832 " stroke="#040200" stroke-width="40" stroke-opacity="1" stroke-miterlimit="10"/><path fill="#ffffff" d="M 10.203125 11.902344 C 10.203125 12.214844 9.945312 12.46875 9.625 12.46875 C 9.304688 12.46875 9.046875 12.214844 9.046875 11.902344 C 9.046875 11.585938 9.304688 11.332031 9.625 11.332031 C 9.945312 11.332031 10.203125 11.585938 10.203125 11.902344 " fill-opacity="1" fill-rule="nonzero"/><path stroke-linecap="round" transform="matrix(0.0140083, 0, 0, -0.0137579, -16.521461, 43.784265)" fill="none" stroke-linejoin="round" d="M 1907.766037 2317.360832 C 1907.766037 2294.64654 1889.361789 2276.191179 1866.495903 2276.191179 C 1843.630018 2276.191179 1825.225769 2294.64654 1825.225769 2317.360832 C 1825.225769 2340.359052 1843.630018 2358.814414 1866.495903 2358.814414 C 1889.361789 2358.814414 1907.766037 2340.359052 1907.766037 2317.360832 Z M 1907.766037 2317.360832 " stroke="#040200" stroke-width="40" stroke-opacity="1" stroke-miterlimit="10"/><path stroke-linecap="round" transform="matrix(0.0140083, 0, 0, -0.0137579, -16.521461, 43.784265)" fill="none" stroke-linejoin="round" d="M 2064.481006 1846.891069 L 1886.852118 1846.891069 " stroke="#040200" stroke-width="40" stroke-opacity="1" stroke-miterlimit="10"/><path fill="#ffffff" d="M 10.203125 18.375 C 10.203125 18.691406 9.945312 18.941406 9.625 18.941406 C 9.304688 18.941406 9.046875 18.691406 9.046875 18.375 C 9.046875 18.0625 9.304688 17.808594 9.625 17.808594 C 9.945312 17.808594 10.203125 18.0625 10.203125 18.375 " fill-opacity="1" fill-rule="nonzero"/><path stroke-linecap="round" transform="matrix(0.0140083, 0, 0, -0.0137579, -16.521461, 43.784265)" fill="none" stroke-linejoin="round" d="M 1907.766037 1846.891069 C 1907.766037 1823.892849 1889.361789 1805.721416 1866.495903 1805.721416 C 1843.630018 1805.721416 1825.225769 1823.892849 1825.225769 1846.891069 C 1825.225769 1869.605361 1843.630018 1888.060723 1866.495903 1888.060723 C 1889.361789 1888.060723 1907.766037 1869.605361 1907.766037 1846.891069 Z M 1907.766037 1846.891069 " stroke="#040200" stroke-width="40" stroke-opacity="1" stroke-miterlimit="10"/><g fill="#63cad6" fill-opacity="1"><g transform="translate(25.642354, 20.878341)"><g><path d="M 0.75 0 L 0.75 -6.765625 C 1.332031 -6.816406 2.148438 -6.84375 3.203125 -6.84375 C 4.085938 -6.84375 4.695312 -6.691406 5.03125 -6.390625 C 5.363281 -6.085938 5.53125 -5.515625 5.53125 -4.671875 C 5.53125 -3.828125 5.367188 -3.253906 5.046875 -2.953125 C 4.734375 -2.648438 4.171875 -2.5 3.359375 -2.5 C 2.878906 -2.5 2.421875 -2.523438 1.984375 -2.578125 L 1.984375 0 Z M 1.984375 -3.5 L 3.171875 -3.5 C 3.609375 -3.5 3.90625 -3.578125 4.0625 -3.734375 C 4.21875 -3.898438 4.296875 -4.210938 4.296875 -4.671875 C 4.296875 -5.128906 4.21875 -5.4375 4.0625 -5.59375 C 3.90625 -5.757812 3.609375 -5.84375 3.171875 -5.84375 L 1.984375 -5.84375 Z M 1.984375 -3.5 "/></g></g></g><g fill="#63cad6" fill-opacity="1"><g transform="translate(31.558834, 20.878341)"><g><path d="M 5.0625 -0.984375 L 5.125 -0.0625 C 4.53125 -0.0078125 3.535156 0.015625 2.140625 0.015625 C 1.703125 0.015625 1.351562 -0.0976562 1.09375 -0.328125 C 0.832031 -0.554688 0.703125 -0.867188 0.703125 -1.265625 L 0.703125 -5.5 C 0.703125 -5.894531 0.832031 -6.207031 1.09375 -6.4375 C 1.351562 -6.664062 1.703125 -6.78125 2.140625 -6.78125 C 3.535156 -6.78125 4.53125 -6.753906 5.125 -6.703125 L 5.0625 -5.765625 L 2.421875 -5.765625 C 2.242188 -5.765625 2.117188 -5.71875 2.046875 -5.625 C 1.972656 -5.539062 1.9375 -5.394531 1.9375 -5.1875 L 1.9375 -4 L 4.703125 -4 L 4.703125 -3.0625 L 1.9375 -3.0625 L 1.9375 -1.5625 C 1.9375 -1.351562 1.972656 -1.203125 2.046875 -1.109375 C 2.117188 -1.023438 2.242188 -0.984375 2.421875 -0.984375 Z M 5.0625 -0.984375 "/></g></g></g><g fill="#63cad6" fill-opacity="1"><g transform="translate(37.152063, 20.878341)"><g><path d="M 6.25 -6.765625 L 6.25 -0.453125 C 6.25 -0.148438 6.097656 0 5.796875 0 L 4.828125 0 C 4.597656 0 4.429688 -0.125 4.328125 -0.375 L 2.421875 -4.515625 C 2.191406 -5.003906 2.054688 -5.34375 2.015625 -5.53125 L 1.90625 -5.53125 C 1.9375 -5.25 1.953125 -4.90625 1.953125 -4.5 L 1.953125 0 L 0.75 0 L 0.75 -6.3125 C 0.75 -6.613281 0.90625 -6.765625 1.21875 -6.765625 L 2.171875 -6.765625 C 2.296875 -6.765625 2.394531 -6.734375 2.46875 -6.671875 C 2.550781 -6.609375 2.617188 -6.515625 2.671875 -6.390625 L 4.515625 -2.359375 C 4.535156 -2.316406 4.601562 -2.164062 4.71875 -1.90625 C 4.832031 -1.644531 4.921875 -1.441406 4.984375 -1.296875 L 5.109375 -1.296875 C 5.078125 -1.703125 5.0625 -2.066406 5.0625 -2.390625 L 5.0625 -6.765625 Z M 6.25 -6.765625 "/></g></g></g><g fill="#63cad6" fill-opacity="1"><g transform="translate(44.185228, 20.878341)"><g><path d="M 3.1875 -2.671875 L 1.828125 -3.109375 C 1.335938 -3.265625 0.988281 -3.5 0.78125 -3.8125 C 0.570312 -4.132812 0.46875 -4.550781 0.46875 -5.0625 C 0.46875 -5.800781 0.640625 -6.285156 0.984375 -6.515625 C 1.328125 -6.753906 1.929688 -6.875 2.796875 -6.875 C 3.617188 -6.875 4.328125 -6.800781 4.921875 -6.65625 L 4.84375 -5.78125 C 4.09375 -5.800781 3.421875 -5.8125 2.828125 -5.8125 C 2.378906 -5.8125 2.078125 -5.769531 1.921875 -5.6875 C 1.773438 -5.601562 1.703125 -5.390625 1.703125 -5.046875 C 1.703125 -4.765625 1.753906 -4.566406 1.859375 -4.453125 C 1.972656 -4.335938 2.171875 -4.234375 2.453125 -4.140625 L 3.765625 -3.75 C 4.273438 -3.582031 4.632812 -3.335938 4.84375 -3.015625 C 5.050781 -2.703125 5.15625 -2.285156 5.15625 -1.765625 C 5.15625 -1.023438 4.976562 -0.523438 4.625 -0.265625 C 4.269531 -0.00390625 3.644531 0.125 2.75 0.125 C 2.007812 0.125 1.28125 0.0507812 0.5625 -0.09375 L 0.640625 -1 C 1.773438 -0.96875 2.488281 -0.953125 2.78125 -0.953125 C 3.226562 -0.953125 3.523438 -1.003906 3.671875 -1.109375 C 3.828125 -1.222656 3.90625 -1.445312 3.90625 -1.78125 C 3.90625 -2.070312 3.851562 -2.269531 3.75 -2.375 C 3.65625 -2.488281 3.46875 -2.585938 3.1875 -2.671875 Z M 3.1875 -2.671875 "/></g></g></g><g fill="#63cad6" fill-opacity="1"><g transform="translate(49.798049, 20.878341)"><g><path d="M 5.0625 -0.984375 L 5.125 -0.0625 C 4.53125 -0.0078125 3.535156 0.015625 2.140625 0.015625 C 1.703125 0.015625 1.351562 -0.0976562 1.09375 -0.328125 C 0.832031 -0.554688 0.703125 -0.867188 0.703125 -1.265625 L 0.703125 -5.5 C 0.703125 -5.894531 0.832031 -6.207031 1.09375 -6.4375 C 1.351562 -6.664062 1.703125 -6.78125 2.140625 -6.78125 C 3.535156 -6.78125 4.53125 -6.753906 5.125 -6.703125 L 5.0625 -5.765625 L 2.421875 -5.765625 C 2.242188 -5.765625 2.117188 -5.71875 2.046875 -5.625 C 1.972656 -5.539062 1.9375 -5.394531 1.9375 -5.1875 L 1.9375 -4 L 4.703125 -4 L 4.703125 -3.0625 L 1.9375 -3.0625 L 1.9375 -1.5625 C 1.9375 -1.351562 1.972656 -1.203125 2.046875 -1.109375 C 2.117188 -1.023438 2.242188 -0.984375 2.421875 -0.984375 Z M 5.0625 -0.984375 "/></g></g></g><g fill="#63cad6" fill-opacity="1"><g transform="translate(55.391278, 20.878341)"><g/></g></g><g fill="#63cad6" fill-opacity="1"><g transform="translate(57.575681, 20.878341)"><g><path d="M 5.640625 -3.90625 L 5.640625 0 L 4.734375 0 L 4.625 -0.671875 C 4.0625 -0.140625 3.398438 0.125 2.640625 0.125 C 1.898438 0.125 1.363281 -0.15625 1.03125 -0.71875 C 0.695312 -1.28125 0.53125 -2.175781 0.53125 -3.40625 C 0.53125 -4.738281 0.742188 -5.648438 1.171875 -6.140625 C 1.609375 -6.640625 2.378906 -6.890625 3.484375 -6.890625 C 4.234375 -6.890625 4.878906 -6.8125 5.421875 -6.65625 L 5.328125 -5.75 C 4.691406 -5.789062 4.097656 -5.8125 3.546875 -5.8125 C 3.191406 -5.8125 2.914062 -5.785156 2.71875 -5.734375 C 2.519531 -5.679688 2.347656 -5.566406 2.203125 -5.390625 C 2.054688 -5.222656 1.953125 -4.976562 1.890625 -4.65625 C 1.835938 -4.332031 1.8125 -3.894531 1.8125 -3.34375 C 1.8125 -2.4375 1.898438 -1.804688 2.078125 -1.453125 C 2.253906 -1.109375 2.570312 -0.9375 3.03125 -0.9375 C 3.46875 -0.9375 3.941406 -1.09375 4.453125 -1.40625 L 4.453125 -3.90625 Z M 5.640625 -3.90625 "/></g></g></g><g fill="#63cad6" fill-opacity="1"><g transform="translate(63.825209, 20.878341)"><g><path d="M 5.8125 0 L 4.5 0 L 3.96875 -2.09375 C 3.84375 -2.5 3.582031 -2.703125 3.1875 -2.703125 L 1.96875 -2.71875 L 1.96875 0 L 0.75 0 L 0.75 -6.765625 C 1.332031 -6.816406 2.15625 -6.84375 3.21875 -6.84375 C 4.070312 -6.84375 4.675781 -6.703125 5.03125 -6.421875 C 5.382812 -6.140625 5.5625 -5.625 5.5625 -4.875 C 5.5625 -4.34375 5.460938 -3.9375 5.265625 -3.65625 C 5.078125 -3.382812 4.753906 -3.222656 4.296875 -3.171875 L 4.296875 -3.109375 C 4.492188 -3.066406 4.675781 -2.960938 4.84375 -2.796875 C 5.019531 -2.640625 5.140625 -2.410156 5.203125 -2.109375 Z M 1.96875 -3.71875 L 3.1875 -3.71875 C 3.625 -3.71875 3.921875 -3.789062 4.078125 -3.9375 C 4.242188 -4.09375 4.328125 -4.375 4.328125 -4.78125 C 4.328125 -5.195312 4.242188 -5.476562 4.078125 -5.625 C 3.921875 -5.769531 3.625 -5.84375 3.1875 -5.84375 L 1.96875 -5.84375 Z M 1.96875 -3.71875 "/></g></g></g><g fill="#63cad6" fill-opacity="1"><g transform="translate(70.015964, 20.878341)"><g><path d="M 4.375 -1.90625 L 1.859375 -1.90625 L 1.296875 0 L 0.046875 0 L 2.078125 -6.4375 C 2.140625 -6.65625 2.285156 -6.765625 2.515625 -6.765625 L 3.71875 -6.765625 C 3.945312 -6.765625 4.09375 -6.65625 4.15625 -6.4375 L 6.1875 0 L 4.921875 0 Z M 4.078125 -2.921875 L 3.40625 -5.25 C 3.3125 -5.601562 3.257812 -5.796875 3.25 -5.828125 L 2.984375 -5.828125 L 2.828125 -5.25 L 2.15625 -2.921875 Z M 4.078125 -2.921875 "/></g></g></g><g fill="#63cad6" fill-opacity="1"><g transform="translate(76.275287, 20.878341)"><g><path d="M 6.25 -6.765625 L 6.25 -0.453125 C 6.25 -0.148438 6.097656 0 5.796875 0 L 4.828125 0 C 4.597656 0 4.429688 -0.125 4.328125 -0.375 L 2.421875 -4.515625 C 2.191406 -5.003906 2.054688 -5.34375 2.015625 -5.53125 L 1.90625 -5.53125 C 1.9375 -5.25 1.953125 -4.90625 1.953125 -4.5 L 1.953125 0 L 0.75 0 L 0.75 -6.3125 C 0.75 -6.613281 0.90625 -6.765625 1.21875 -6.765625 L 2.171875 -6.765625 C 2.296875 -6.765625 2.394531 -6.734375 2.46875 -6.671875 C 2.550781 -6.609375 2.617188 -6.515625 2.671875 -6.390625 L 4.515625 -2.359375 C 4.535156 -2.316406 4.601562 -2.164062 4.71875 -1.90625 C 4.832031 -1.644531 4.921875 -1.441406 4.984375 -1.296875 L 5.109375 -1.296875 C 5.078125 -1.703125 5.0625 -2.066406 5.0625 -2.390625 L 5.0625 -6.765625 Z M 6.25 -6.765625 "/></g></g></g><g fill="#63cad6" fill-opacity="1"><g transform="translate(83.308449, 20.878341)"><g><path d="M 0.75 0 L 0.75 -6.765625 C 1.644531 -6.816406 2.488281 -6.84375 3.28125 -6.84375 C 4.300781 -6.84375 5.015625 -6.59375 5.421875 -6.09375 C 5.835938 -5.59375 6.046875 -4.6875 6.046875 -3.375 C 6.046875 -2.070312 5.835938 -1.164062 5.421875 -0.65625 C 5.015625 -0.15625 4.300781 0.09375 3.28125 0.09375 C 2.488281 0.09375 1.644531 0.0625 0.75 0 Z M 1.984375 -5.8125 L 1.984375 -0.953125 C 2.492188 -0.941406 2.925781 -0.9375 3.28125 -0.9375 C 3.84375 -0.9375 4.226562 -1.109375 4.4375 -1.453125 C 4.644531 -1.804688 4.75 -2.445312 4.75 -3.375 C 4.75 -4.300781 4.640625 -4.941406 4.421875 -5.296875 C 4.210938 -5.648438 3.832031 -5.828125 3.28125 -5.828125 C 3.101562 -5.828125 2.875 -5.820312 2.59375 -5.8125 C 2.3125 -5.8125 2.109375 -5.8125 1.984375 -5.8125 Z M 1.984375 -5.8125 "/></g></g></g><g clip-path="url(#fdef49d254)"><g fill="#63cad6" fill-opacity="1"><g transform="translate(89.910611, 20.878341)"><g><path d="M 5.0625 -0.984375 L 5.125 -0.0625 C 4.53125 -0.0078125 3.535156 0.015625 2.140625 0.015625 C 1.703125 0.015625 1.351562 -0.0976562 1.09375 -0.328125 C 0.832031 -0.554688 0.703125 -0.867188 0.703125 -1.265625 L 0.703125 -5.5 C 0.703125 -5.894531 0.832031 -6.207031 1.09375 -6.4375 C 1.351562 -6.664062 1.703125 -6.78125 2.140625 -6.78125 C 3.535156 -6.78125 4.53125 -6.753906 5.125 -6.703125 L 5.0625 -5.765625 L 2.421875 -5.765625 C 2.242188 -5.765625 2.117188 -5.71875 2.046875 -5.625 C 1.972656 -5.539062 1.9375 -5.394531 1.9375 -5.1875 L 1.9375 -4 L 4.703125 -4 L 4.703125 -3.0625 L 1.9375 -3.0625 L 1.9375 -1.5625 C 1.9375 -1.351562 1.972656 -1.203125 2.046875 -1.109375 C 2.117188 -1.023438 2.242188 -0.984375 2.421875 -0.984375 Z M 5.0625 -0.984375 "/></g></g></g></g><g clip-path="url(#cd4d94b396)"><path stroke-linecap="butt" transform="matrix(0.199336, 0, 0, 0.199336, 24.616648, 13.000478)" fill="none" stroke-linejoin="miter" d="M 7.41013 37.994937 L 7.41013 4.093239 C 10.329987 3.799294 14.425626 3.642523 19.697046 3.642523 C 24.145419 3.642523 27.202451 4.406781 28.868142 5.935296 C 30.514236 7.463812 31.337283 10.324881 31.337283 14.557694 C 31.337283 18.790507 30.553428 21.671172 28.98572 23.199687 C 27.418011 24.708607 24.576539 25.472865 20.480901 25.472865 C 18.050952 25.472865 15.758179 25.33569 13.54379 25.080938 L 13.54379 37.994937 Z M 13.54379 20.456197 L 19.540275 20.456197 C 21.715471 20.417005 23.185198 20.005481 23.969052 19.20203 C 24.752907 18.39858 25.144834 16.850468 25.144834 14.557694 C 25.144834 12.26492 24.752907 10.716808 23.969052 9.913357 C 23.185198 9.109906 21.715471 8.717979 19.540275 8.717979 L 13.54379 8.717979 Z M 58.713394 33.037059 L 59.007339 37.700992 C 56.028693 37.955745 51.051218 38.092919 44.074915 38.092919 C 41.84093 38.092919 40.077258 37.524625 38.783899 36.388036 C 37.490539 35.231851 36.824263 33.664142 36.804666 31.665314 L 36.804666 10.422862 C 36.824263 8.424034 37.490539 6.856325 38.783899 5.70014 C 40.077258 4.563551 41.84093 3.995257 44.074915 3.995257 C 51.051218 3.995257 56.028693 4.112835 59.007339 4.367588 L 58.713394 9.109906 L 45.44666 9.109906 C 44.564824 9.109906 43.937741 9.325466 43.545813 9.73699 C 43.173483 10.16811 42.997115 10.893175 42.997115 11.951378 L 42.997115 17.908671 L 56.890933 17.908671 L 56.890933 22.611797 L 42.997115 22.611797 L 42.997115 30.195587 C 42.997115 31.234194 43.173483 31.978856 43.545813 32.390379 C 43.937741 32.821499 44.564824 33.037059 45.44666 33.037059 Z M 92.713074 4.093239 L 92.713074 35.741356 C 92.713074 37.250276 91.968413 37.994937 90.459493 37.994937 L 85.599596 37.994937 C 84.423815 37.994937 83.561575 37.367854 83.032474 36.133283 L 73.508644 15.341548 C 72.352459 12.892003 71.686183 11.206717 71.490219 10.285688 L 70.902328 10.285688 C 71.098292 11.657433 71.196274 13.362316 71.196274 15.400337 L 71.196274 37.994937 L 65.140999 37.994937 L 65.140999 6.34682 C 65.140999 4.8379 65.924854 4.093239 67.453369 4.093239 L 72.215284 4.093239 C 72.88156 4.093239 73.391066 4.230413 73.763397 4.524359 C 74.155324 4.818304 74.488462 5.288617 74.782407 5.954893 L 84.012292 26.158737 C 84.12987 26.393894 84.463008 27.158152 85.050898 28.471108 C 85.638789 29.784064 86.089505 30.783478 86.383451 31.508543 L 86.971341 31.508543 C 86.814571 29.450925 86.736185 27.608868 86.736185 26.021563 L 86.736185 4.093239 Z M 112.662166 24.591029 L 105.842634 22.415833 C 103.393089 21.631979 101.629417 20.436601 100.59081 18.868892 C 99.532607 17.261991 99.003505 15.184777 99.003505 12.578462 C 99.003505 8.894346 99.865745 6.444802 101.590224 5.26902 C 103.314704 4.093239 106.332543 3.505348 110.643741 3.505348 C 114.817765 3.505348 118.384302 3.877679 121.323756 4.622341 L 120.931829 8.992328 C 117.188925 8.87475 113.837948 8.796365 110.859301 8.796365 C 108.586124 8.796365 107.077204 9.031521 106.332543 9.482237 C 105.587881 9.913357 105.195954 10.991157 105.195954 12.69604 C 105.195954 14.106978 105.470303 15.086795 105.999405 15.674686 C 106.548103 16.242981 107.547517 16.752486 108.978051 17.203202 L 115.523234 19.221627 C 118.109953 20.044674 119.912818 21.259648 120.951425 22.846953 C 121.970436 24.434258 122.499538 26.511472 122.499538 29.117787 C 122.499538 32.841095 121.617701 35.369025 119.834433 36.662385 C 118.070761 37.936148 114.95494 38.582828 110.467374 38.582828 C 106.72447 38.582828 103.059951 38.230094 99.434625 37.505028 L 99.846148 32.97827 C 105.568285 33.115444 109.154418 33.19383 110.604549 33.19383 C 112.85813 33.19383 114.367049 32.919481 115.131307 32.409975 C 115.875969 31.880874 116.2483 30.763881 116.2483 29.058998 C 116.2483 27.608868 115.993547 26.609454 115.484042 26.060756 C 114.974536 25.492461 114.053507 25.002552 112.662166 24.591029 Z M 150.228383 33.037059 L 150.502732 37.700992 C 147.524086 37.955745 142.546611 38.092919 135.570308 38.092919 C 133.336323 38.092919 131.572651 37.524625 130.279291 36.388036 C 128.985932 35.231851 128.339252 33.664142 128.300059 31.665314 L 128.300059 10.422862 C 128.339252 8.424034 128.985932 6.856325 130.279291 5.70014 C 131.572651 4.563551 133.336323 3.995257 135.570308 3.995257 C 142.546611 3.995257 147.524086 4.112835 150.502732 4.367588 L 150.228383 9.109906 L 136.942053 9.109906 C 136.060217 9.109906 135.433133 9.325466 135.060803 9.73699 C 134.668876 10.16811 134.492508 10.893175 134.492508 11.951378 L 134.492508 17.908671 L 148.405922 17.908671 L 148.405922 22.611797 L 134.492508 22.611797 L 134.492508 30.195587 C 134.492508 31.234194 134.668876 31.978856 135.060803 32.390379 C 135.433133 32.821499 136.060217 33.037059 136.942053 33.037059 Z M 192.125396 18.437773 L 192.125396 37.994937 L 187.559444 37.994937 L 187.010746 34.64396 C 184.208467 37.309065 180.896683 38.641617 177.094989 38.641617 C 173.352085 38.641617 170.647788 37.211083 168.982097 34.389208 C 167.316407 31.547736 166.473764 27.06017 166.473764 20.906914 C 166.473764 14.204959 167.551563 9.639008 169.707163 7.169867 C 171.882358 4.68113 175.742841 3.446559 181.327803 3.446559 C 185.090303 3.446559 188.323702 3.838486 191.047596 4.583148 L 190.557687 9.149099 C 187.383077 8.953136 184.404431 8.855154 181.621748 8.855154 C 179.858076 8.855154 178.466734 8.972732 177.486917 9.227485 C 176.507099 9.482237 175.644859 10.030935 174.880601 10.912771 C 174.116343 11.775011 173.606838 13.009582 173.332489 14.636079 C 173.05814 16.262577 172.920965 18.457369 172.920965 21.240052 C 172.920965 25.806003 173.352085 28.961016 174.233921 30.705092 C 175.135354 32.449168 176.722659 33.331004 179.015432 33.331004 C 181.210224 33.331004 183.581384 32.54715 186.148507 30.959845 L 186.148507 18.437773 Z M 224.322211 37.994937 L 217.777028 37.994937 L 215.092327 27.471693 C 214.465243 25.453269 213.152287 24.434258 211.153459 24.434258 L 205.058992 24.375469 L 205.058992 37.994937 L 198.964524 37.994937 L 198.964524 4.093239 C 201.884382 3.799294 205.98002 3.642523 211.290633 3.642523 C 215.582235 3.642523 218.619671 4.347992 220.402939 5.778526 C 222.205804 7.20906 223.107237 9.795779 223.107237 13.577876 C 223.107237 16.184191 222.597731 18.202616 221.617914 19.593958 C 220.638096 20.985299 219.011598 21.827942 216.758017 22.121888 L 216.758017 22.357044 C 217.737835 22.5922 218.658864 23.121302 219.501507 23.944349 C 220.363747 24.767396 220.951637 25.903985 221.265179 27.373712 Z M 205.058992 19.378398 L 211.153459 19.378398 C 213.348251 19.339205 214.837574 18.947278 215.641025 18.202616 C 216.444475 17.438358 216.855999 16.027421 216.855999 13.969803 C 216.855999 11.892589 216.444475 10.501248 215.641025 9.795779 C 214.837574 9.070714 213.348251 8.717979 211.153459 8.717979 L 205.058992 8.717979 Z M 248.151382 28.412318 L 235.57052 28.412318 L 232.768241 37.994937 L 226.47781 37.994937 L 236.64832 5.70014 C 236.942265 4.622341 237.686927 4.093239 238.862708 4.093239 L 244.859194 4.093239 C 246.034975 4.093239 246.779637 4.622341 247.073582 5.70014 L 257.244091 37.994937 L 250.953661 37.994937 Z M 246.681655 23.356458 L 243.291485 11.657433 C 242.821172 9.893761 242.586016 8.913943 242.546823 8.757172 L 241.214271 8.757172 L 240.430417 11.657433 L 237.040247 23.356458 Z M 288.99019 4.093239 L 288.99019 35.741356 C 288.99019 37.250276 288.245529 37.994937 286.736609 37.994937 L 281.857116 37.994937 C 280.681335 37.994937 279.838692 37.367854 279.30959 36.133283 L 269.78576 15.341548 C 268.629575 12.892003 267.943703 11.206717 267.767335 10.285688 L 267.179445 10.285688 C 267.355812 11.657433 267.453794 13.362316 267.453794 15.400337 L 267.453794 37.994937 L 261.418116 37.994937 L 261.418116 6.34682 C 261.418116 4.8379 262.182373 4.093239 263.730486 4.093239 L 268.492401 4.093239 C 269.158677 4.093239 269.668182 4.230413 270.040513 4.524359 C 270.412844 4.818304 270.745982 5.288617 271.039927 5.954893 L 280.289408 26.158737 C 280.38739 26.393894 280.740124 27.158152 281.328015 28.471108 C 281.915905 29.784064 282.347025 30.783478 282.660567 31.508543 L 283.248458 31.508543 C 283.072091 29.450925 282.993705 27.608868 282.993705 26.021563 L 282.993705 4.093239 Z M 296.691559 37.994937 L 296.691559 4.093239 C 301.198721 3.799294 305.411938 3.642523 309.370402 3.642523 C 314.524244 3.642523 318.110378 4.916286 320.167995 7.444216 C 322.206016 9.95255 323.244623 14.498905 323.244623 21.044088 C 323.244623 27.589271 322.206016 32.135626 320.167995 34.663557 C 318.110378 37.191487 314.524244 38.445654 309.370402 38.445654 C 305.411938 38.445654 301.198721 38.288883 296.691559 37.994937 Z M 302.844815 8.796365 L 302.844815 33.19383 C 305.392342 33.252619 307.587134 33.291811 309.370402 33.291811 C 312.192278 33.291811 314.132317 32.409975 315.170924 30.6659 C 316.229127 28.902227 316.758229 25.708021 316.758229 21.044088 C 316.758229 16.380155 316.229127 13.185949 315.151328 11.40268 C 314.093124 9.639008 312.172681 8.757172 309.370402 8.757172 C 308.508163 8.757172 307.351977 8.757172 305.921443 8.776768 C 304.490909 8.796365 303.471899 8.796365 302.844815 8.796365 Z M 351.443782 33.037059 L 351.737727 37.700992 C 348.759081 37.955745 343.781606 38.092919 336.805303 38.092919 C 334.571318 38.092919 332.807646 37.524625 331.514286 36.388036 C 330.220927 35.231851 329.55465 33.664142 329.535054 31.665314 L 329.535054 10.422862 C 329.55465 8.424034 330.220927 6.856325 331.514286 5.70014 C 332.807646 4.563551 334.571318 3.995257 336.805303 3.995257 C 343.781606 3.995257 348.759081 4.112835 351.737727 4.367588 L 351.443782 9.109906 L 338.177048 9.109906 C 337.295212 9.109906 336.668128 9.325466 336.276201 9.73699 C 335.90387 10.16811 335.727503 10.893175 335.727503 11.951378 L 335.727503 17.908671 L 349.62132 17.908671 L 349.62132 22.611797 L 335.727503 22.611797 L 335.727503 30.195587 C 335.727503 31.234194 335.90387 31.978856 336.276201 32.390379 C 336.668128 32.821499 337.295212 33.037059 338.177048 33.037059 Z M 351.443782 33.037059 " stroke="#000000" stroke-width="0.921636" stroke-opacity="1" stroke-miterlimit="4"/></g></svg>