<?xml version="1.0" encoding="UTF-8"?>
<!DOCTYPE svg PUBLIC "-//W3C//DTD SVG 1.1//EN" "http://www.w3.org/Graphics/SVG/1.1/DTD/svg11.dtd">
<!-- Creator: CorelDRAW X7 -->
<svg xmlns="http://www.w3.org/2000/svg" xml:space="preserve" width="12.1665mm" height="13.5586mm" version="1.1" style="shape-rendering:geometricPrecision; text-rendering:geometricPrecision; image-rendering:optimizeQuality; fill-rule:evenodd; clip-rule:evenodd"
viewBox="0 0 129 143"
 xmlns:xlink="http://www.w3.org/1999/xlink">
 <defs>
  <style type="text/css">
   <![CDATA[
    .fil1 {fill:#433936}
    .fil4 {fill:#434443}
    .fil9 {fill:#463626}
    .fil5 {fill:#57544A}
    .fil2 {fill:#5B5B5B}
    .fil8 {fill:#D6846D}
    .fil7 {fill:#E98367}
    .fil3 {fill:#F5D879}
    .fil6 {fill:#FBE596}
    .fil0 {fill:#FD7D59}
   ]]>
  </style>
 </defs>
 <g id="Camada_x0020_1">
  <metadata id="CorelCorpID_0Corel-Layer"/>
  <g id="_2448832459200">
   <path class="fil0" d="M20 81c-1,-7 3,-10 9,-8 -1,6 1,2 -4,6 -3,2 -1,2 -5,2zm30 -18c3,-8 6,-7 15,-7 17,0 14,3 15,6l-30 1zm-45 19l0 19c7,4 4,-4 10,6 9,14 12,11 16,17 3,4 2,5 3,9l2 4 9 0c5,-7 5,-12 18,-12 10,0 14,5 17,13l12 0c1,-16 2,-11 10,-20 5,-6 8,-12 9,-21 4,-43 -42,-53 -71,-41 -3,1 -7,3 -10,4l-15 16c-6,7 -3,2 -10,6z"/>
   <path class="fil1" d="M5 82c7,-4 4,1 10,-6l15 -16c3,-1 7,-3 10,-4 29,-12 75,-2 71,41 -1,9 -4,15 -9,21 -8,9 -9,4 -10,20l-12 0c-3,-8 -7,-13 -17,-13 -13,0 -13,5 -18,12l-9 0 -2 -4c-1,-4 0,-5 -3,-9 -4,-6 -7,-3 -16,-17 -6,-10 -3,-2 -10,-6l0 -19zm18 -23l-3 -10c8,-1 7,1 14,3 0,0 -1,1 -1,1l-10 6zm11 -17c7,1 10,3 11,9 -7,-1 -11,-1 -11,-9zm-19 12l4 8c-2,4 -4,5 -8,9 -5,7 -5,2 -11,6l1 29 8 1c4,8 8,12 13,16 12,10 4,8 7,20l20 0c4,-7 3,-13 14,-13 10,0 9,6 13,13l22 0c1,-10 -4,-11 4,-17 16,-14 17,-42 12,-49l-4 -6c0,-1 -2,-3 -3,-5 -1,-6 -12,-13 -20,-16 -11,-4 -22,-4 -34,-3 -4,-1 -7,-12 -24,-11 -3,5 0,1 -1,4 0,0 -1,1 -1,2 0,0 0,1 0,1 0,0 0,0 0,1 -5,-1 -10,0 -14,1l2 9z"/>
   <path class="fil2" d="M69 7c11,2 11,14 6,21 -7,3 -18,7 -22,-4 -4,-11 6,-21 16,-17zm4 -5l-4 -2c-31,2 -26,33 -10,37 22,6 36,-23 14,-35z"/>
   <path class="fil3" d="M75 28c-2,-3 -1,1 -3,-4 -1,-2 -1,-4 -1,-5 -1,-6 0,-6 -2,-12 -10,-4 -20,6 -16,17 4,11 15,7 22,4z"/>
   <path class="fil4" d="M107 66c1,2 3,4 3,5l4 6 -1 -4c3,-1 9,-2 10,-3 4,-2 3,-3 6,-6 0,-6 -1,-10 -3,-14l-1 -3c-5,0 -2,-1 -6,2 3,7 5,4 4,14 -1,-5 -3,-11 -9,-8 -6,3 -1,9 -1,13l-6 -2z"/>
   <path class="fil5" d="M50 63l30 -1c-1,-3 2,-6 -15,-6 -9,0 -12,-1 -15,7z"/>
   <path class="fil6" d="M75 28c5,-7 5,-19 -6,-21 2,6 1,6 2,12 0,1 0,3 1,5 2,5 1,1 3,4z"/>
   <path class="fil7" d="M23 59l10 -6c0,0 1,-1 1,-1 -7,-2 -6,-4 -14,-3l3 10z"/>
   <path class="fil8" d="M45 51c-1,-6 -4,-8 -11,-9 0,8 4,8 11,9z"/>
   <path class="fil9" d="M20 81c4,0 2,0 5,-2 5,-4 3,0 4,-6 -6,-2 -10,1 -9,8z"/>
  </g>
 </g>
</svg>
