<?xml version="1.0" encoding="UTF-8"?>
<!DOCTYPE svg PUBLIC "-//W3C//DTD SVG 1.1//EN" "http://www.w3.org/Graphics/SVG/1.1/DTD/svg11.dtd">
<!-- Creator: CorelDRAW X7 -->
<svg xmlns="http://www.w3.org/2000/svg" xml:space="preserve" width="12.0383mm" height="13.5586mm" version="1.1" style="shape-rendering:geometricPrecision; text-rendering:geometricPrecision; image-rendering:optimizeQuality; fill-rule:evenodd; clip-rule:evenodd"
viewBox="0 0 184 207"
 xmlns:xlink="http://www.w3.org/1999/xlink">
 <defs>
  <style type="text/css">
   <![CDATA[
    .fil2 {fill:#343A33}
    .fil6 {fill:#353535}
    .fil3 {fill:#3A3433}
    .fil5 {fill:#3D3B3D}
    .fil8 {fill:#433936}
    .fil1 {fill:#62C55D}
    .fil9 {fill:#A89456}
    .fil4 {fill:#F87959}
    .fil7 {fill:#FCDB6B}
    .fil0 {fill:#FDFDFD}
   ]]>
  </style>
 </defs>
 <g id="Camada_x0020_1">
  <metadata id="CorelCorpID_0Corel-Layer"/>
  <g id="_2448668031712">
   <path class="fil0" d="M86 182c-25,0 -19,-1 -18,-74 0,-17 1,-13 30,-13 26,-1 21,-2 21,23 0,76 9,64 -33,64zm-75 -66c-6,5 -3,-1 -5,5 -2,9 3,-6 0,5 0,2 -2,3 -3,6l-1 39c2,11 -3,5 5,11l0 -40 44 -1c14,2 5,38 4,39 -10,5 -36,2 -49,1l1 3c0,1 0,1 0,1 0,1 0,2 0,2 -5,11 8,-8 -2,3l-5 4c12,-1 5,-2 7,3l172 0c0,-2 -2,-7 -2,-7 0,-1 3,-5 3,-5 6,-12 3,1 0,-4 -13,1 -39,1 -50,0 -6,-6 -4,-18 -4,-30l0 -57c1,-16 5,-20 -8,-18 5,-11 5,-9 2,-18l-5 4c-6,6 -7,11 -15,17 -13,-4 -19,-13 -31,-16 -5,5 -6,8 -11,15l-32 44 -15 -6z"/>
   <path class="fil1" d="M139 172l32 0c2,-25 0,-100 3,-109 -10,-2 -24,-1 -35,1l0 108z"/>
   <path class="fil2" d="M139 64c11,-2 25,-3 35,-1 -3,9 -1,84 -3,109l-32 0 0 -108zm-9 117c11,1 37,1 50,0 4,-29 1,-78 1,-111 -1,-19 2,-17 -18,-16 -9,0 -23,-2 -30,1 -6,11 -3,106 -3,126z"/>
   <path class="fil3" d="M78 172c-2,-10 -1,-55 -1,-68l33 1 -1 67 -31 0zm8 10c42,0 33,12 33,-64 0,-25 5,-24 -21,-23 -29,0 -30,-4 -30,13 -1,73 -7,74 18,74z"/>
   <path class="fil4" d="M78 172l31 0 1 -67 -33 -1c0,13 -1,58 1,68z"/>
   <path class="fil5" d="M72 51l-7 1c-4,6 -8,14 -15,19 -3,10 -20,28 -25,39 -10,-2 -12,-9 -22,-5 0,8 5,7 8,11l15 6 32 -44c5,-7 6,-10 11,-15 12,3 18,12 31,16 8,-6 9,-11 15,-17l5 -4c5,-13 20,-23 24,-34l-8 -2c-7,5 -12,15 -18,22 -7,8 -12,15 -18,23l-28 -16z"/>
   <path class="fil6" d="M179 197l-172 0c-1,3 -1,6 1,8 13,3 169,2 175,-1 -1,-7 1,-4 -4,-7z"/>
   <path class="fil3" d="M15 149l34 1 -1 23 -33 0 0 -24zm-8 33l-1 -1c13,1 39,4 49,-1 1,-1 10,-37 -4,-39l-44 1 0 40z"/>
   <polygon class="fil7" points="17,171 46,171 47,151 16,151 "/>
   <path class="fil8" d="M136 22l8 2c3,-2 0,0 4,-3 2,-2 1,-1 3,-2l1 4 10 -1c-1,-4 -1,-6 -1,-10 -1,-1 -1,-4 -1,-6 -3,-7 2,2 -3,-4l-2 6c-7,3 -14,1 -20,0 1,-1 2,-1 2,-2 0,0 1,0 2,-1 0,0 1,-1 1,-1 0,0 1,0 2,-1 0,-1 0,-1 1,-1 -24,3 -18,4 -18,10 6,3 9,1 17,1l-6 9z"/>
   <path class="fil9" d="M16 151l31 0 -1 20 -29 0 -1 -20zm-1 22l33 0 1 -23 -34 -1 0 24z"/>
   <path class="fil6" d="M143 2c-1,0 -1,0 -1,1 -1,1 -2,1 -2,1 0,0 -1,1 -1,1 -1,1 -2,1 -2,1 0,1 -1,1 -2,2 6,1 13,3 20,0l2 -6 -2 -2 -12 2z"/>
   <path class="fil6" d="M162 34l0 1 0 -13 -10 1 5 11c9,1 -7,0 5,0z"/>
  </g>
 </g>
</svg>
